<svg width="2752" height="210" viewBox="0 0 2752 210" fill="none" xmlns="http://www.w3.org/2000/svg">
<mask id="path-1-outside-1_213_10" maskUnits="userSpaceOnUse" x="-0.100098" y="-0.963867" width="2752" height="211" fill="black">
<rect fill="white" x="-0.100098" y="-0.963867" width="2752" height="211"/>
<path d="M63.9759 198.844C51.4319 193.468 40.6799 186.044 31.2079 176.828C21.9919 167.356 14.5679 156.604 9.19188 144.06C3.81588 131.516 0.999878 118.46 0.999878 104.636C0.999878 90.5561 3.81588 77.2441 9.19188 64.7001C14.5679 52.4121 21.9919 41.6601 31.2079 32.4441C40.6799 22.9721 51.4319 15.8041 63.9759 10.4281C76.2639 5.05212 89.5759 2.23613 103.656 2.23613C117.736 2.23613 131.048 4.79613 143.336 10.1721C155.624 15.5481 166.632 22.9721 176.104 32.4441L151.784 56.2521C138.216 42.9401 122.088 36.5401 103.656 36.5401C94.1839 36.5401 85.2239 38.3321 77.0319 41.6601C68.5839 45.2441 61.4159 50.1081 55.2719 56.5081C49.1279 62.6521 44.2639 69.8201 40.6799 78.0121C37.0959 86.4601 35.3039 95.1641 35.3039 104.636C35.3039 114.108 37.0959 122.812 40.6799 131.26C44.2639 139.452 49.1279 146.62 55.5279 152.764C61.6719 159.164 68.8399 164.028 77.0319 167.612C85.4799 170.94 94.1839 172.732 103.656 172.732L143.336 199.1C131.048 204.476 117.736 207.036 103.656 207.036C89.5759 207.036 76.2639 204.22 63.9759 198.844ZM327.52 108.988C319.584 120.508 309.6 128.7 297.568 133.564L339.552 207.036H300.384L240.992 104.38L271.456 104.636C280.672 104.636 288.608 101.308 295.264 94.6521C302.176 87.9961 305.504 79.8041 305.504 70.3321C305.504 61.1161 302.176 53.1801 295.264 46.5241C288.608 39.8681 280.672 36.5401 271.456 36.5401H203.104L199.264 32.7001L181.6 2.23613H271.456C290.144 2.23613 306.272 8.89212 319.584 22.2041C332.896 35.7721 339.552 51.6441 339.552 70.3321C339.552 84.6681 335.712 97.4681 327.52 108.988ZM373.95 204.22L407.998 172.732H510.398V207.036H373.95V204.22ZM373.95 2.23613H510.398V36.5401H407.998L373.95 2.23613ZM373.95 87.7401H407.998H510.398V121.788H407.998H373.95V87.7401ZM647.292 138.94L630.396 172.732L612.988 207.036H575.1L677.5 2.23613L745.852 138.94H707.452L677.5 78.7801L647.292 138.94ZM762.748 172.988L779.9 207.036H741.756L724.86 172.988H762.748ZM804.65 2.23613H907.05V36.5401H838.954V207.036H804.65V36.5401V2.23613ZM1026.15 2.23613C1054.57 2.23613 1078.37 12.4761 1098.34 32.4441C1118.57 52.4121 1128.81 76.4761 1128.81 104.636C1128.81 133.052 1118.57 157.116 1098.34 176.828C1078.37 196.796 1054.57 207.036 1026.15 207.036C997.734 207.036 973.926 196.796 953.958 176.828C933.99 156.86 923.75 133.052 923.75 104.636C923.75 76.4761 933.99 52.4121 953.958 32.4441C973.67 12.4761 997.734 2.23613 1026.15 2.23613ZM1026.15 36.5401C1007.46 36.5401 991.334 42.9401 977.766 56.5081C964.454 69.8201 958.054 85.9481 958.054 104.636C958.054 123.324 964.454 139.708 977.766 153.02C991.078 166.332 1007.46 172.732 1026.15 172.732C1044.84 172.732 1060.97 166.332 1074.28 153.02C1087.85 139.452 1094.25 123.324 1094.25 104.636C1094.25 85.9481 1087.59 69.8201 1074.28 56.5081C1060.97 43.1961 1044.84 36.5401 1026.15 36.5401ZM1270.02 108.988C1262.08 120.508 1252.1 128.7 1240.07 133.564L1282.05 207.036H1242.88L1183.49 104.38L1213.96 104.636C1223.17 104.636 1231.11 101.308 1237.76 94.6521C1244.68 87.9961 1248 79.8041 1248 70.3321C1248 61.1161 1244.68 53.1801 1237.76 46.5241C1231.11 39.8681 1223.17 36.5401 1213.96 36.5401H1145.6L1141.76 32.7001L1124.1 2.23613H1213.96C1232.64 2.23613 1248.77 8.89212 1262.08 22.2041C1275.4 35.7721 1282.05 51.6441 1282.05 70.3321C1282.05 84.6681 1278.21 97.4681 1270.02 108.988ZM1455.04 121.788H1404.1C1387.46 121.788 1373.38 115.9 1361.86 104.38C1350.34 92.6041 1344.45 78.5241 1344.45 61.8841C1344.45 45.5001 1350.34 31.6761 1361.86 19.9001C1373.38 8.12413 1387.46 2.23613 1404.1 2.23613V36.5401C1400.51 36.5401 1397.19 37.0521 1394.11 38.3321C1390.79 39.6121 1388.23 41.4041 1385.67 43.9641C1383.36 46.2681 1381.57 49.0841 1380.29 52.1561C1379.01 55.2281 1378.5 58.5561 1378.5 61.8841C1378.5 69.0521 1380.8 74.9401 1385.67 80.0601C1390.79 85.1801 1396.67 87.7401 1404.1 87.7401H1455.04C1471.68 87.7401 1485.76 93.6281 1497.28 105.148C1509.06 116.924 1514.95 131.004 1514.95 147.388C1514.95 163.772 1509.06 177.852 1497.28 189.628C1485.76 201.148 1471.68 207.036 1455.04 207.036V172.732C1458.63 172.732 1461.95 172.22 1465.03 170.94C1468.35 169.66 1471.17 167.868 1473.47 165.564C1475.78 163.26 1477.57 160.7 1478.85 157.372C1480.13 154.3 1480.9 150.972 1480.9 147.388C1480.9 140.476 1478.08 134.588 1473.22 129.468C1468.1 124.348 1462.21 121.788 1455.04 121.788ZM1703.29 2.23613L1767.81 130.492L1748.61 168.892L1665.15 2.23613H1703.29ZM1960.57 2.23613H1998.72L1896.32 207.036L1831.81 78.7801L1851.01 40.3801L1896.32 130.492L1960.57 2.23613ZM2108.65 2.23613C2137.07 2.23613 2160.87 12.4761 2180.84 32.4441C2201.07 52.4121 2211.31 76.4761 2211.31 104.636C2211.31 133.052 2201.07 157.116 2180.84 176.828C2160.87 196.796 2137.07 207.036 2108.65 207.036C2080.23 207.036 2056.43 196.796 2036.46 176.828C2016.49 156.86 2006.25 133.052 2006.25 104.636C2006.25 76.4761 2016.49 52.4121 2036.46 32.4441C2056.17 12.4761 2080.23 2.23613 2108.65 2.23613ZM2108.65 36.5401C2089.96 36.5401 2073.83 42.9401 2060.27 56.5081C2046.95 69.8201 2040.55 85.9481 2040.55 104.636C2040.55 123.324 2046.95 139.708 2060.27 153.02C2073.58 166.332 2089.96 172.732 2108.65 172.732C2127.34 172.732 2143.47 166.332 2156.78 153.02C2170.35 139.452 2176.75 123.324 2176.75 104.636C2176.75 85.9481 2170.09 69.8201 2156.78 56.5081C2143.47 43.1961 2127.34 36.5401 2108.65 36.5401ZM2352.52 108.988C2344.58 120.508 2334.6 128.7 2322.57 133.564L2364.55 207.036H2325.38L2265.99 104.38L2296.46 104.636C2305.67 104.636 2313.61 101.308 2320.26 94.6521C2327.18 87.9961 2330.5 79.8041 2330.5 70.3321C2330.5 61.1161 2327.18 53.1801 2320.26 46.5241C2313.61 39.8681 2305.67 36.5401 2296.46 36.5401H2228.1L2224.26 32.7001L2206.6 2.23613H2296.46C2315.14 2.23613 2331.27 8.89212 2344.58 22.2041C2357.9 35.7721 2364.55 51.6441 2364.55 70.3321C2364.55 84.6681 2360.71 97.4681 2352.52 108.988ZM2461 172.732H2563.4V207.036H2426.95L2461 172.732ZM2426.95 2.23613H2461V7.86812V126.396L2426.95 160.7V7.86812V2.23613ZM2742.86 65.2121C2748.24 77.5001 2750.8 90.5561 2750.8 104.636C2750.8 118.716 2748.24 131.772 2742.86 144.06C2737.23 156.604 2730.06 167.356 2720.84 176.828C2711.63 186.044 2700.62 193.468 2688.08 198.844C2675.79 204.22 2662.48 207.036 2648.4 207.036H2580.3L2614.35 172.732H2648.4C2657.87 172.732 2666.83 170.94 2675.02 167.612C2683.21 164.028 2690.64 159.164 2696.78 152.764C2702.92 146.364 2707.79 139.196 2711.37 131.004C2714.96 122.556 2716.75 113.852 2716.75 104.636C2716.75 95.4201 2714.96 86.7161 2711.37 78.2681C2707.79 70.0761 2702.92 62.9081 2696.52 56.5081C2690.38 50.3641 2682.96 45.2441 2674.76 41.6601C2666.57 38.3321 2657.61 36.5401 2648.4 36.5401H2614.35L2580.3 2.23613H2648.4C2662.48 2.23613 2675.53 5.05212 2688.08 10.4281C2700.36 15.8041 2711.37 23.2281 2720.59 32.4441C2730.06 41.9161 2737.23 52.6681 2742.86 65.2121Z"/>
</mask>
<path d="M63.9759 198.844L64.3767 197.928L64.3698 197.925L63.9759 198.844ZM31.2079 176.828L30.4911 177.525L30.5007 177.535L30.5105 177.545L31.2079 176.828ZM9.19188 144.06L8.27274 144.454V144.454L9.19188 144.06ZM9.19188 64.7001L8.2757 64.2993L8.27274 64.3062L9.19188 64.7001ZM31.2079 32.4441L30.5008 31.737L31.2079 32.4441ZM63.9759 10.4281L64.3698 11.3473L64.3767 11.3443L63.9759 10.4281ZM143.336 10.1721L143.737 9.25597V9.25597L143.336 10.1721ZM176.104 32.4441L176.803 33.1587L177.526 32.4517L176.811 31.737L176.104 32.4441ZM151.784 56.2521L151.084 56.9659L151.783 57.6523L152.483 56.9667L151.784 56.2521ZM77.0319 41.6601L76.6555 40.7337L76.6484 40.7365L76.6413 40.7395L77.0319 41.6601ZM55.2719 56.5081L55.979 57.2152L55.9862 57.208L55.9933 57.2007L55.2719 56.5081ZM40.6799 78.0121L39.7637 77.6113L39.7593 77.6216L40.6799 78.0121ZM40.6799 131.26L39.7592 131.651L39.7637 131.661L40.6799 131.26ZM55.5279 152.764L56.2493 152.072L56.2351 152.057L56.2204 152.043L55.5279 152.764ZM77.0319 167.612L76.6311 168.528L76.6481 168.536L76.6654 168.543L77.0319 167.612ZM103.656 172.732L104.209 171.899L103.958 171.732H103.656V172.732ZM143.336 199.1L143.737 200.016L145.416 199.282L143.889 198.267L143.336 199.1ZM63.9759 198.844L64.3698 197.925C51.9464 192.601 41.2957 185.248 31.9052 176.111L31.2079 176.828L30.5105 177.545C40.064 186.84 50.9173 194.336 63.582 199.763L63.9759 198.844ZM31.2079 176.828L31.9246 176.131C22.7879 166.74 15.4353 156.09 10.111 143.666L9.19188 144.06L8.27274 144.454C13.7004 157.119 21.1959 167.972 30.4911 177.525L31.2079 176.828ZM9.19188 144.06L10.111 143.666C4.78603 131.241 1.99988 118.319 1.99988 104.636H0.999878H-0.00012207C-0.00012207 118.601 2.84573 131.791 8.27274 144.454L9.19188 144.06ZM0.999878 104.636H1.99988C1.99988 90.6935 4.78761 77.5153 10.111 65.094L9.19188 64.7001L8.27274 64.3062C2.84415 76.9729 -0.00012207 90.4188 -0.00012207 104.636H0.999878ZM9.19188 64.7001L10.108 65.1009C15.4333 52.9289 22.7858 42.2804 31.915 33.1512L31.2079 32.4441L30.5008 31.737C21.1979 41.0399 13.7024 51.8954 8.27572 64.2993L9.19188 64.7001ZM31.2079 32.4441L31.915 33.1512C41.2928 23.7734 51.9371 16.6756 64.3698 11.3473L63.9759 10.4281L63.582 9.50899C50.9266 14.9327 40.0669 22.1709 30.5008 31.737L31.2079 32.4441ZM63.9759 10.4281L64.3767 11.3443C76.5366 6.02434 89.7119 3.23613 103.656 3.23613V2.23613V1.23613C89.4398 1.23613 75.9912 4.07991 63.5751 9.51198L63.9759 10.4281ZM103.656 2.23613V3.23613C117.613 3.23613 130.786 5.77325 142.935 11.0883L143.336 10.1721L143.737 9.25597C131.309 3.819 117.859 1.23613 103.656 1.23613V2.23613ZM143.336 10.1721L142.935 11.0883C155.112 16.4159 166.016 23.7701 175.397 33.1512L176.104 32.4441L176.811 31.737C167.248 22.1741 156.135 14.6804 143.737 9.25597L143.336 10.1721ZM176.104 32.4441L175.404 31.7295L151.084 55.5375L151.784 56.2521L152.483 56.9667L176.803 33.1587L176.104 32.4441ZM151.784 56.2521L152.484 55.5383C138.727 42.0409 122.347 35.5401 103.656 35.5401V36.5401V37.5401C121.829 37.5401 137.704 43.8393 151.084 56.9659L151.784 56.2521ZM103.656 36.5401V35.5401C94.0563 35.5401 84.9684 37.3565 76.6555 40.7337L77.0319 41.6601L77.4083 42.5866C85.4794 39.3077 94.3114 37.5401 103.656 37.5401V36.5401ZM77.0319 41.6601L76.6413 40.7395C68.0756 44.3735 60.7932 49.3128 54.5505 55.8156L55.2719 56.5081L55.9933 57.2007C62.0386 50.9035 69.0922 46.1147 77.4224 42.5807L77.0319 41.6601ZM55.2719 56.5081L54.5648 55.801C48.33 62.0358 43.3962 69.3085 39.7637 77.6113L40.6799 78.0121L41.596 78.4129C45.1315 70.3318 49.9257 63.2685 55.979 57.2152L55.2719 56.5081ZM40.6799 78.0121L39.7593 77.6216C36.1227 86.1937 34.3039 95.0305 34.3039 104.636H35.3039H36.3039C36.3039 95.2977 38.0691 86.7266 41.6005 78.4027L40.6799 78.0121ZM35.3039 104.636H34.3039C34.3039 114.242 36.1227 123.079 39.7593 131.651L40.6799 131.26L41.6005 130.87C38.0691 122.546 36.3039 113.975 36.3039 104.636H35.3039ZM40.6799 131.26L39.7637 131.661C43.3967 139.965 48.3339 147.244 54.8354 153.486L55.5279 152.764L56.2204 152.043C49.9219 145.996 45.1311 138.939 41.596 130.859L40.6799 131.26ZM55.5279 152.764L54.8065 153.457C61.0479 159.958 68.3272 164.895 76.6311 168.528L77.0319 167.612L77.4327 166.696C69.3526 163.161 62.2959 158.37 56.2493 152.072L55.5279 152.764ZM77.0319 167.612L76.6654 168.543C85.2229 171.914 94.051 173.732 103.656 173.732V172.732V171.732C94.3168 171.732 85.7368 169.967 77.3984 166.682L77.0319 167.612ZM103.656 172.732L103.102 173.565L142.782 199.933L143.336 199.1L143.889 198.267L104.209 171.899L103.656 172.732ZM143.336 199.1L142.935 198.184C130.786 203.499 117.613 206.036 103.656 206.036V207.036V208.036C117.859 208.036 131.309 205.453 143.737 200.016L143.336 199.1ZM103.656 207.036V206.036C89.7119 206.036 76.5366 203.248 64.3767 197.928L63.9759 198.844L63.5751 199.76C75.9912 205.192 89.4398 208.036 103.656 208.036V207.036ZM327.52 108.988L326.705 108.409L326.701 108.415L326.696 108.421L327.52 108.988ZM297.568 133.564L297.193 132.637L296.132 133.066L296.7 134.06L297.568 133.564ZM339.552 207.036V208.036H341.275L340.42 206.54L339.552 207.036ZM300.384 207.036L299.518 207.537L299.807 208.036H300.384V207.036ZM240.992 104.38L241 103.38L239.25 103.365L240.126 104.881L240.992 104.38ZM271.456 104.636L271.447 105.636H271.456V104.636ZM295.264 94.6521L294.57 93.9318L294.563 93.9384L294.557 93.945L295.264 94.6521ZM295.264 46.5241L294.557 47.2312L294.563 47.2379L294.57 47.2444L295.264 46.5241ZM203.104 36.5401L202.397 37.2472L202.69 37.5401H203.104V36.5401ZM199.264 32.7001L198.399 33.2017L198.464 33.3148L198.557 33.4072L199.264 32.7001ZM181.6 2.23613V1.23613H179.864L180.735 2.73773L181.6 2.23613ZM319.584 22.2041L320.298 21.5037L320.291 21.497L319.584 22.2041ZM327.52 108.988L326.696 108.421C318.862 119.793 309.029 127.852 297.193 132.637L297.568 133.564L297.943 134.491C310.171 129.548 320.305 121.224 328.343 109.555L327.52 108.988ZM297.568 133.564L296.7 134.06L338.684 207.532L339.552 207.036L340.42 206.54L298.436 133.068L297.568 133.564ZM339.552 207.036V206.036H300.384V207.036V208.036H339.552V207.036ZM300.384 207.036L301.249 206.535L241.857 103.879L240.992 104.38L240.126 104.881L299.518 207.537L300.384 207.036ZM240.992 104.38L240.983 105.38L271.447 105.636L271.456 104.636L271.464 103.636L241 103.38L240.992 104.38ZM271.456 104.636V105.636C280.943 105.636 289.132 102.198 295.971 95.3592L295.264 94.6521L294.557 93.945C288.084 100.418 280.4 103.636 271.456 103.636V104.636ZM295.264 94.6521L295.958 95.3725C303.072 88.5212 306.504 80.066 306.504 70.3321H305.504H304.504C304.504 79.5423 301.279 87.4711 294.57 93.9318L295.264 94.6521ZM305.504 70.3321H306.504C306.504 60.8418 303.063 52.6465 295.958 45.8038L295.264 46.5241L294.57 47.2444C301.288 53.7137 304.504 61.3905 304.504 70.3321H305.504ZM295.264 46.5241L295.971 45.817C289.132 38.978 280.943 35.5401 271.456 35.5401V36.5401V37.5401C280.4 37.5401 288.084 40.7583 294.557 47.2312L295.264 46.5241ZM271.456 36.5401V35.5401H203.104V36.5401V37.5401H271.456V36.5401ZM203.104 36.5401L203.811 35.833L199.971 31.993L199.264 32.7001L198.557 33.4072L202.397 37.2472L203.104 36.5401ZM199.264 32.7001L200.129 32.1985L182.465 1.73453L181.6 2.23613L180.735 2.73773L198.399 33.2017L199.264 32.7001ZM181.6 2.23613V3.23613H271.456V2.23613V1.23613H181.6V2.23613ZM271.456 2.23613V3.23613C289.879 3.23613 305.752 9.78665 318.877 22.9112L319.584 22.2041L320.291 21.497C306.792 7.99759 290.409 1.23613 271.456 1.23613V2.23613ZM319.584 22.2041L318.87 22.9045C332.005 36.292 338.552 51.915 338.552 70.3321H339.552H340.552C340.552 51.3732 333.787 35.2522 320.298 21.5038L319.584 22.2041ZM339.552 70.3321H338.552C338.552 84.4745 334.769 97.069 326.705 108.409L327.52 108.988L328.335 109.568C336.655 97.8673 340.552 84.8618 340.552 70.3321H339.552ZM373.95 204.22L373.271 203.486L372.95 203.783V204.22H373.95ZM407.998 172.732V171.732H407.606L407.319 171.998L407.998 172.732ZM510.398 172.732H511.398V171.732H510.398V172.732ZM510.398 207.036V208.036H511.398V207.036H510.398ZM373.95 207.036H372.95V208.036H373.95V207.036ZM373.95 2.23613V1.23613H371.548L373.24 2.94058L373.95 2.23613ZM510.398 2.23613H511.398V1.23613H510.398V2.23613ZM510.398 36.5401V37.5401H511.398V36.5401H510.398ZM407.998 36.5401L407.288 37.2446L407.581 37.5401H407.998V36.5401ZM373.95 87.7401V86.7401H372.95V87.7401H373.95ZM510.398 87.7401H511.398V86.7401H510.398V87.7401ZM510.398 121.788V122.788H511.398V121.788H510.398ZM373.95 121.788H372.95V122.788H373.95V121.788ZM373.95 204.22L374.629 204.954L408.677 173.466L407.998 172.732L407.319 171.998L373.271 203.486L373.95 204.22ZM407.998 172.732V173.732H510.398V172.732V171.732H407.998V172.732ZM510.398 172.732H509.398V207.036H510.398H511.398V172.732H510.398ZM510.398 207.036V206.036H373.95V207.036V208.036H510.398V207.036ZM373.95 207.036H374.95V204.22H373.95H372.95V207.036H373.95ZM373.95 2.23613V3.23613H510.398V2.23613V1.23613H373.95V2.23613ZM510.398 2.23613H509.398V36.5401H510.398H511.398V2.23613H510.398ZM510.398 36.5401V35.5401H407.998V36.5401V37.5401H510.398V36.5401ZM407.998 36.5401L408.708 35.8357L374.66 1.53168L373.95 2.23613L373.24 2.94058L407.288 37.2446L407.998 36.5401ZM373.95 87.7401V88.7401H407.998V87.7401V86.7401H373.95V87.7401ZM407.998 87.7401V88.7401H510.398V87.7401V86.7401H407.998V87.7401ZM510.398 87.7401H509.398V121.788H510.398H511.398V87.7401H510.398ZM510.398 121.788V120.788H407.998V121.788V122.788H510.398V121.788ZM407.998 121.788V120.788H373.95V121.788V122.788H407.998V121.788ZM373.95 121.788H374.95V87.7401H373.95H372.95V121.788H373.95ZM647.292 138.94L646.398 138.491L646.397 138.493L647.292 138.94ZM630.396 172.732L631.288 173.185L631.29 173.179L630.396 172.732ZM612.988 207.036V208.036H613.602L613.88 207.489L612.988 207.036ZM575.1 207.036L574.205 206.589L573.482 208.036H575.1V207.036ZM677.5 2.23613L678.394 1.78891L677.5 6.10352e-05L676.605 1.78891L677.5 2.23613ZM745.852 138.94V139.94H747.47L746.746 138.493L745.852 138.94ZM707.452 138.94L706.557 139.386L706.833 139.94H707.452V138.94ZM677.5 78.7801L678.395 78.3344L677.504 76.5441L676.606 78.3314L677.5 78.7801ZM762.748 172.988L763.641 172.538L763.364 171.988H762.748V172.988ZM779.9 207.036V208.036H781.523L780.793 206.586L779.9 207.036ZM741.756 207.036L740.86 207.481L741.136 208.036H741.756V207.036ZM724.86 172.988V171.988H723.247L723.964 173.433L724.86 172.988ZM647.292 138.94L646.397 138.493L629.501 172.285L630.396 172.732L631.29 173.179L648.186 139.387L647.292 138.94ZM630.396 172.732L629.504 172.28L612.096 206.584L612.988 207.036L613.88 207.489L631.288 173.185L630.396 172.732ZM612.988 207.036V206.036H575.1V207.036V208.036H612.988V207.036ZM575.1 207.036L575.994 207.483L678.394 2.68335L677.5 2.23613L676.605 1.78891L574.205 206.589L575.1 207.036ZM677.5 2.23613L676.605 2.68335L744.957 139.387L745.852 138.94L746.746 138.493L678.394 1.78891L677.5 2.23613ZM745.852 138.94V137.94H707.452V138.94V139.94H745.852V138.94ZM707.452 138.94L708.347 138.494L678.395 78.3344L677.5 78.7801L676.605 79.2258L706.557 139.386L707.452 138.94ZM677.5 78.7801L676.606 78.3314L646.398 138.491L647.292 138.94L648.186 139.389L678.394 79.2289L677.5 78.7801ZM762.748 172.988L761.855 173.438L779.007 207.486L779.9 207.036L780.793 206.586L763.641 172.538L762.748 172.988ZM779.9 207.036V206.036H741.756V207.036V208.036H779.9V207.036ZM741.756 207.036L742.652 206.592L725.756 172.544L724.86 172.988L723.964 173.433L740.86 207.481L741.756 207.036ZM724.86 172.988V173.988H762.748V172.988V171.988H724.86V172.988ZM804.65 2.23613V1.23613H803.65V2.23613H804.65ZM907.05 2.23613H908.05V1.23613H907.05V2.23613ZM907.05 36.5401V37.5401H908.05V36.5401H907.05ZM838.954 36.5401V35.5401H837.954V36.5401H838.954ZM838.954 207.036V208.036H839.954V207.036H838.954ZM804.65 207.036H803.65V208.036H804.65V207.036ZM804.65 2.23613V3.23613H907.05V2.23613V1.23613H804.65V2.23613ZM907.05 2.23613H906.05V36.5401H907.05H908.05V2.23613H907.05ZM907.05 36.5401V35.5401H838.954V36.5401V37.5401H907.05V36.5401ZM838.954 36.5401H837.954V207.036H838.954H839.954V36.5401H838.954ZM838.954 207.036V206.036H804.65V207.036V208.036H838.954V207.036ZM804.65 207.036H805.65V36.5401H804.65H803.65V207.036H804.65ZM804.65 36.5401H805.65V2.23613H804.65H803.65V36.5401H804.65ZM1098.34 32.4441L1097.63 33.1512L1097.64 33.1557L1098.34 32.4441ZM1098.34 176.828L1097.64 176.112L1097.63 176.121L1098.34 176.828ZM953.958 176.828L954.665 176.121V176.121L953.958 176.828ZM953.958 32.4441L954.665 33.1512L954.67 33.1467L953.958 32.4441ZM977.766 56.5081L978.473 57.2152V57.2152L977.766 56.5081ZM1074.28 153.02L1073.57 152.313V152.313L1074.28 153.02ZM1074.28 56.5081L1073.57 57.2152V57.2152L1074.28 56.5081ZM1026.15 2.23613V3.23613C1054.29 3.23613 1077.85 13.3645 1097.63 33.1512L1098.34 32.4441L1099.05 31.737C1078.9 11.5877 1054.84 1.23613 1026.15 1.23613V2.23613ZM1098.34 32.4441L1097.64 33.1557C1117.68 52.9401 1127.81 76.7496 1127.81 104.636H1128.81H1129.81C1129.81 76.2027 1119.45 51.8842 1099.04 31.7325L1098.34 32.4441ZM1128.81 104.636H1127.81C1127.81 132.781 1117.68 156.587 1097.64 176.112L1098.34 176.828L1099.04 177.544C1119.46 157.645 1129.81 133.323 1129.81 104.636H1128.81ZM1098.34 176.828L1097.63 176.121C1077.85 195.908 1054.29 206.036 1026.15 206.036V207.036V208.036C1054.84 208.036 1078.9 197.685 1099.05 177.535L1098.34 176.828ZM1026.15 207.036V206.036C998.008 206.036 974.452 195.908 954.665 176.121L953.958 176.828L953.251 177.535C973.4 197.685 997.46 208.036 1026.15 208.036V207.036ZM953.958 176.828L954.665 176.121C934.878 156.334 924.75 132.778 924.75 104.636H923.75H922.75C922.75 133.326 933.101 157.386 953.251 177.535L953.958 176.828ZM923.75 104.636H924.75C924.75 76.7487 934.879 52.9369 954.665 33.1512L953.958 32.4441L953.251 31.737C933.1 51.8873 922.75 76.2036 922.75 104.636H923.75ZM953.958 32.4441L954.67 33.1467C974.196 13.367 998.004 3.23613 1026.15 3.23613V2.23613V1.23613C997.464 1.23613 973.144 11.5852 953.246 31.7416L953.958 32.4441ZM1026.15 36.5401V35.5401C1007.2 35.5401 990.819 42.0407 977.059 55.801L977.766 56.5081L978.473 57.2152C991.849 43.8395 1007.72 37.5401 1026.15 37.5401V36.5401ZM977.766 56.5081L977.059 55.801C963.552 69.3074 957.054 85.6927 957.054 104.636H958.054H959.054C959.054 86.2036 965.355 70.3329 978.473 57.2152L977.766 56.5081ZM958.054 104.636H957.054C957.054 123.576 963.55 140.218 977.059 153.727L977.766 153.02L978.473 152.313C965.358 139.198 959.054 123.073 959.054 104.636H958.054ZM977.766 153.02L977.059 153.727C990.568 167.236 1007.21 173.732 1026.15 173.732V172.732V171.732C1007.71 171.732 991.588 165.428 978.473 152.313L977.766 153.02ZM1026.15 172.732V173.732C1045.09 173.732 1061.48 167.234 1074.98 153.727L1074.28 153.02L1073.57 152.313C1060.45 165.431 1044.58 171.732 1026.15 171.732V172.732ZM1074.28 153.02L1074.98 153.727C1088.75 139.967 1095.25 123.583 1095.25 104.636H1094.25H1093.25C1093.25 123.066 1086.95 138.937 1073.57 152.313L1074.28 153.02ZM1094.25 104.636H1095.25C1095.25 85.6828 1088.48 69.3004 1074.98 55.801L1074.28 56.5081L1073.57 57.2152C1086.7 70.3398 1093.25 86.2135 1093.25 104.636H1094.25ZM1074.28 56.5081L1074.98 55.801C1061.49 42.3016 1045.1 35.5401 1026.15 35.5401V36.5401V37.5401C1044.57 37.5401 1060.45 44.0907 1073.57 57.2152L1074.28 56.5081ZM1270.02 108.988L1269.2 108.409L1269.2 108.415L1269.2 108.421L1270.02 108.988ZM1240.07 133.564L1239.69 132.637L1238.63 133.066L1239.2 134.06L1240.07 133.564ZM1282.05 207.036V208.036H1283.78L1282.92 206.54L1282.05 207.036ZM1242.88 207.036L1242.02 207.537L1242.31 208.036H1242.88V207.036ZM1183.49 104.38L1183.5 103.38L1181.75 103.365L1182.63 104.881L1183.49 104.38ZM1213.96 104.636L1213.95 105.636H1213.96V104.636ZM1237.76 94.6521L1237.07 93.9318L1237.06 93.9384L1237.06 93.945L1237.76 94.6521ZM1237.76 46.5241L1237.06 47.2312L1237.06 47.2379L1237.07 47.2444L1237.76 46.5241ZM1145.6 36.5401L1144.9 37.2472L1145.19 37.5401H1145.6V36.5401ZM1141.76 32.7001L1140.9 33.2017L1140.96 33.3148L1141.06 33.4072L1141.76 32.7001ZM1124.1 2.23613V1.23613H1122.36L1123.23 2.73773L1124.1 2.23613ZM1262.08 22.2041L1262.8 21.5037L1262.79 21.497L1262.08 22.2041ZM1270.02 108.988L1269.2 108.421C1261.36 119.793 1251.53 127.852 1239.69 132.637L1240.07 133.564L1240.44 134.491C1252.67 129.548 1262.81 121.224 1270.84 109.555L1270.02 108.988ZM1240.07 133.564L1239.2 134.06L1281.18 207.532L1282.05 207.036L1282.92 206.54L1240.94 133.068L1240.07 133.564ZM1282.05 207.036V206.036H1242.88V207.036V208.036H1282.05V207.036ZM1242.88 207.036L1243.75 206.535L1184.36 103.879L1183.49 104.38L1182.63 104.881L1242.02 207.537L1242.88 207.036ZM1183.49 104.38L1183.48 105.38L1213.95 105.636L1213.96 104.636L1213.96 103.636L1183.5 103.38L1183.49 104.38ZM1213.96 104.636V105.636C1223.44 105.636 1231.63 102.198 1238.47 95.3592L1237.76 94.6521L1237.06 93.945C1230.58 100.418 1222.9 103.636 1213.96 103.636V104.636ZM1237.76 94.6521L1238.46 95.3725C1245.57 88.5212 1249 80.066 1249 70.3321H1248H1247C1247 79.5423 1243.78 87.4711 1237.07 93.9318L1237.76 94.6521ZM1248 70.3321H1249C1249 60.8418 1245.56 52.6465 1238.46 45.8038L1237.76 46.5241L1237.07 47.2444C1243.79 53.7137 1247 61.3905 1247 70.3321H1248ZM1237.76 46.5241L1238.47 45.817C1231.63 38.978 1223.44 35.5401 1213.96 35.5401V36.5401V37.5401C1222.9 37.5401 1230.58 40.7583 1237.06 47.2312L1237.76 46.5241ZM1213.96 36.5401V35.5401H1145.6V36.5401V37.5401H1213.96V36.5401ZM1145.6 36.5401L1146.31 35.833L1142.47 31.993L1141.76 32.7001L1141.06 33.4072L1144.9 37.2472L1145.6 36.5401ZM1141.76 32.7001L1142.63 32.1985L1124.96 1.73453L1124.1 2.23613L1123.23 2.73773L1140.9 33.2017L1141.76 32.7001ZM1124.1 2.23613V3.23613H1213.96V2.23613V1.23613H1124.1V2.23613ZM1213.96 2.23613V3.23613C1232.38 3.23613 1248.25 9.78665 1261.38 22.9112L1262.08 22.2041L1262.79 21.497C1249.29 7.99759 1232.91 1.23613 1213.96 1.23613V2.23613ZM1262.08 22.2041L1261.37 22.9045C1274.51 36.292 1281.05 51.915 1281.05 70.3321H1282.05H1283.05C1283.05 51.3732 1276.29 35.2522 1262.8 21.5038L1262.08 22.2041ZM1282.05 70.3321H1281.05C1281.05 84.4745 1277.27 97.069 1269.2 108.409L1270.02 108.988L1270.83 109.568C1279.16 97.8673 1283.05 84.8618 1283.05 70.3321H1282.05ZM1361.86 104.38L1361.14 105.079L1361.15 105.087L1361.86 104.38ZM1361.86 19.9001L1362.57 20.5994V20.5994L1361.86 19.9001ZM1404.1 2.23613H1405.1V1.23613H1404.1V2.23613ZM1404.1 36.5401V37.5401H1405.1V36.5401H1404.1ZM1394.11 38.3321L1394.47 39.2655L1394.49 39.2605L1394.5 39.2552L1394.11 38.3321ZM1380.29 52.1561L1381.21 52.5407V52.5407L1380.29 52.1561ZM1385.67 80.0601L1384.94 80.7489L1384.95 80.7582L1384.96 80.7672L1385.67 80.0601ZM1497.28 105.148L1496.57 105.855V105.855L1497.28 105.148ZM1497.28 189.628L1496.57 188.921V188.921L1497.28 189.628ZM1455.04 207.036H1454.04V208.036H1455.04V207.036ZM1455.04 172.732V171.732H1454.04V172.732H1455.04ZM1465.03 170.94L1464.67 170.007L1464.65 170.012L1464.64 170.017L1465.03 170.94ZM1473.47 165.564L1472.77 164.857V164.857L1473.47 165.564ZM1478.85 157.372L1477.93 156.988L1477.92 157L1477.92 157.013L1478.85 157.372ZM1473.22 129.468L1473.94 128.779L1473.93 128.77L1473.92 128.761L1473.22 129.468ZM1455.04 121.788V120.788H1404.1V121.788V122.788H1455.04V121.788ZM1404.1 121.788V120.788C1387.72 120.788 1373.9 115.005 1362.56 103.673L1361.86 104.38L1361.15 105.087C1372.86 116.795 1387.19 122.788 1404.1 122.788V121.788ZM1361.86 104.38L1362.57 103.681C1351.23 92.0882 1345.45 78.2578 1345.45 61.8841H1344.45H1343.45C1343.45 78.7904 1349.44 93.1201 1361.14 105.079L1361.86 104.38ZM1344.45 61.8841H1345.45C1345.45 45.7733 1351.23 32.1971 1362.57 20.5994L1361.86 19.9001L1361.14 19.2008C1349.45 31.1551 1343.45 45.227 1343.45 61.8841H1344.45ZM1361.86 19.9001L1362.57 20.5994C1373.9 9.01791 1387.72 3.23613 1404.1 3.23613V2.23613V1.23613C1387.19 1.23613 1372.85 7.23035 1361.14 19.2008L1361.86 19.9001ZM1404.1 2.23613H1403.1V36.5401H1404.1H1405.1V2.23613H1404.1ZM1404.1 36.5401V35.5401C1400.42 35.5401 1396.95 36.0656 1393.73 37.409L1394.11 38.3321L1394.5 39.2552C1397.42 38.0387 1400.61 37.5401 1404.1 37.5401V36.5401ZM1394.11 38.3321L1393.75 37.3988C1390.28 38.737 1387.6 40.6152 1384.96 43.257L1385.67 43.9641L1386.37 44.6712C1388.85 42.1931 1391.3 40.4872 1394.47 39.2655L1394.11 38.3321ZM1385.67 43.9641L1384.96 43.257C1382.55 45.6654 1380.69 48.5957 1379.37 51.7715L1380.29 52.1561L1381.21 52.5407C1382.45 49.5726 1384.17 46.8709 1386.37 44.6712L1385.67 43.9641ZM1380.29 52.1561L1379.37 51.7715C1378.02 54.9923 1377.5 58.4567 1377.5 61.8841H1378.5H1379.5C1379.5 58.6555 1379.99 55.464 1381.21 52.5407L1380.29 52.1561ZM1378.5 61.8841H1377.5C1377.5 69.3014 1379.9 75.438 1384.94 80.7489L1385.67 80.0601L1386.39 79.3714C1381.71 74.4423 1379.5 68.8028 1379.5 61.8841H1378.5ZM1385.67 80.0601L1384.96 80.7672C1390.26 86.0688 1396.4 88.7401 1404.1 88.7401V87.7401V86.7401C1396.95 86.7401 1391.31 84.2915 1386.37 79.353L1385.67 80.0601ZM1404.1 87.7401V88.7401H1455.04V87.7401V86.7401H1404.1V87.7401ZM1455.04 87.7401V88.7401C1471.42 88.7401 1485.24 94.5233 1496.57 105.855L1497.28 105.148L1497.99 104.441C1486.28 92.733 1471.95 86.7401 1455.04 86.7401V87.7401ZM1497.28 105.148L1496.57 105.855C1508.17 117.447 1513.95 131.274 1513.95 147.388H1514.95H1515.95C1515.95 130.734 1509.95 116.401 1497.99 104.441L1497.28 105.148ZM1514.95 147.388H1513.95C1513.95 163.502 1508.17 177.329 1496.57 188.921L1497.28 189.628L1497.99 190.335C1509.95 178.375 1515.95 164.042 1515.95 147.388H1514.95ZM1497.28 189.628L1496.57 188.921C1485.24 200.253 1471.42 206.036 1455.04 206.036V207.036V208.036C1471.95 208.036 1486.28 202.043 1497.99 190.335L1497.28 189.628ZM1455.04 207.036H1456.04V172.732H1455.04H1454.04V207.036H1455.04ZM1455.04 172.732V173.732C1458.72 173.732 1462.19 173.207 1465.41 171.863L1465.03 170.94L1464.64 170.017C1461.72 171.234 1458.53 171.732 1455.04 171.732V172.732ZM1465.03 170.94L1465.38 171.873C1468.83 170.548 1471.77 168.683 1474.18 166.271L1473.47 165.564L1472.77 164.857C1470.57 167.053 1467.88 168.772 1464.67 170.007L1465.03 170.94ZM1473.47 165.564L1474.18 166.271C1476.57 163.88 1478.45 161.204 1479.78 157.731L1478.85 157.372L1477.92 157.013C1476.69 160.196 1474.98 162.64 1472.77 164.857L1473.47 165.564ZM1478.85 157.372L1479.77 157.757C1481.1 154.577 1481.9 151.119 1481.9 147.388H1480.9H1479.9C1479.9 150.825 1479.16 154.023 1477.93 156.988L1478.85 157.372ZM1480.9 147.388H1481.9C1481.9 140.171 1478.95 134.047 1473.94 128.779L1473.22 129.468L1472.49 130.157C1477.22 135.129 1479.9 140.781 1479.9 147.388H1480.9ZM1473.22 129.468L1473.92 128.761C1468.63 123.463 1462.49 120.788 1455.04 120.788V121.788V122.788C1461.93 122.788 1467.57 125.233 1472.51 130.175L1473.22 129.468ZM1703.29 2.23613L1704.19 1.78677L1703.91 1.23613H1703.29V2.23613ZM1767.81 130.492L1768.7 130.939L1768.92 130.491L1768.7 130.043L1767.81 130.492ZM1748.61 168.892L1747.71 169.34L1748.61 171.127L1749.5 169.339L1748.61 168.892ZM1665.15 2.23613V1.23613H1663.53L1664.26 2.6839L1665.15 2.23613ZM1960.57 2.23613V1.23613H1959.96L1959.68 1.78821L1960.57 2.23613ZM1998.72 2.23613L1999.61 2.68335L2000.34 1.23613H1998.72V2.23613ZM1896.32 207.036L1895.42 207.485L1896.32 209.267L1897.21 207.483L1896.32 207.036ZM1831.81 78.7801L1830.91 78.3329L1830.69 78.7815L1830.91 79.2295L1831.81 78.7801ZM1851.01 40.3801L1851.9 39.9309L1851 38.1491L1850.11 39.9329L1851.01 40.3801ZM1896.32 130.492L1895.42 130.941L1896.32 132.721L1897.21 130.94L1896.32 130.492ZM1703.29 2.23613L1702.4 2.68549L1766.91 130.941L1767.81 130.492L1768.7 130.043L1704.19 1.78677L1703.29 2.23613ZM1767.81 130.492L1766.91 130.045L1747.71 168.445L1748.61 168.892L1749.5 169.339L1768.7 130.939L1767.81 130.492ZM1748.61 168.892L1749.5 168.444L1666.04 1.78836L1665.15 2.23613L1664.26 2.6839L1747.71 169.34L1748.61 168.892ZM1665.15 2.23613V3.23613H1703.29V2.23613V1.23613H1665.15V2.23613ZM1960.57 2.23613V3.23613H1998.72V2.23613V1.23613H1960.57V2.23613ZM1998.72 2.23613L1997.82 1.78891L1895.42 206.589L1896.32 207.036L1897.21 207.483L1999.61 2.68335L1998.72 2.23613ZM1896.32 207.036L1897.21 206.587L1832.7 78.3308L1831.81 78.7801L1830.91 79.2295L1895.42 207.485L1896.32 207.036ZM1831.81 78.7801L1832.7 79.2273L1851.9 40.8273L1851.01 40.3801L1850.11 39.9329L1830.91 78.3329L1831.81 78.7801ZM1851.01 40.3801L1850.11 40.8294L1895.42 130.941L1896.32 130.492L1897.21 130.043L1851.9 39.9309L1851.01 40.3801ZM1896.32 130.492L1897.21 130.94L1961.47 2.68405L1960.57 2.23613L1959.68 1.78821L1895.42 130.044L1896.32 130.492ZM2180.84 32.4441L2180.13 33.1512L2180.14 33.1557L2180.84 32.4441ZM2180.84 176.828L2180.14 176.112L2180.14 176.121L2180.84 176.828ZM2036.46 176.828L2037.17 176.121V176.121L2036.46 176.828ZM2036.46 32.4441L2037.17 33.1512L2037.17 33.1467L2036.46 32.4441ZM2060.27 56.5081L2060.97 57.2152V57.2152L2060.27 56.5081ZM2156.78 153.02L2156.07 152.313V152.313L2156.78 153.02ZM2156.78 56.5081L2156.07 57.2152V57.2152L2156.78 56.5081ZM2108.65 2.23613V3.23613C2136.79 3.23613 2160.35 13.3645 2180.14 33.1512L2180.84 32.4441L2181.55 31.737C2161.4 11.5877 2137.34 1.23613 2108.65 1.23613V2.23613ZM2180.84 32.4441L2180.14 33.1557C2200.18 52.9401 2210.31 76.7496 2210.31 104.636H2211.31H2212.31C2212.31 76.2027 2201.95 51.8842 2181.54 31.7325L2180.84 32.4441ZM2211.31 104.636H2210.31C2210.31 132.781 2200.18 156.587 2180.14 176.112L2180.84 176.828L2181.54 177.544C2201.96 157.645 2212.31 133.323 2212.31 104.636H2211.31ZM2180.84 176.828L2180.14 176.121C2160.35 195.908 2136.79 206.036 2108.65 206.036V207.036V208.036C2137.34 208.036 2161.4 197.685 2181.55 177.535L2180.84 176.828ZM2108.65 207.036V206.036C2080.51 206.036 2056.95 195.908 2037.17 176.121L2036.46 176.828L2035.75 177.535C2055.9 197.685 2079.96 208.036 2108.65 208.036V207.036ZM2036.46 176.828L2037.17 176.121C2017.38 156.334 2007.25 132.778 2007.25 104.636H2006.25H2005.25C2005.25 133.326 2015.6 157.386 2035.75 177.535L2036.46 176.828ZM2006.25 104.636H2007.25C2007.25 76.7487 2017.38 52.9369 2037.17 33.1512L2036.46 32.4441L2035.75 31.737C2015.6 51.8873 2005.25 76.2036 2005.25 104.636H2006.25ZM2036.46 32.4441L2037.17 33.1467C2056.7 13.367 2080.5 3.23613 2108.65 3.23613V2.23613V1.23613C2079.96 1.23613 2055.64 11.5852 2035.75 31.7416L2036.46 32.4441ZM2108.65 36.5401V35.5401C2089.7 35.5401 2073.32 42.0407 2059.56 55.801L2060.27 56.5081L2060.97 57.2152C2074.35 43.8395 2090.22 37.5401 2108.65 37.5401V36.5401ZM2060.27 56.5081L2059.56 55.801C2046.05 69.3074 2039.55 85.6927 2039.55 104.636H2040.55H2041.55C2041.55 86.2036 2047.86 70.3329 2060.97 57.2152L2060.27 56.5081ZM2040.55 104.636H2039.55C2039.55 123.576 2046.05 140.218 2059.56 153.727L2060.27 153.02L2060.97 152.313C2047.86 139.198 2041.55 123.073 2041.55 104.636H2040.55ZM2060.27 153.02L2059.56 153.727C2073.07 167.236 2089.71 173.732 2108.65 173.732V172.732V171.732C2090.21 171.732 2074.09 165.428 2060.97 152.313L2060.27 153.02ZM2108.65 172.732V173.732C2127.59 173.732 2143.98 167.234 2157.49 153.727L2156.78 153.02L2156.07 152.313C2142.95 165.431 2127.08 171.732 2108.65 171.732V172.732ZM2156.78 153.02L2157.49 153.727C2171.25 139.967 2177.75 123.583 2177.75 104.636H2176.75H2175.75C2175.75 123.066 2169.45 138.937 2156.07 152.313L2156.78 153.02ZM2176.75 104.636H2177.75C2177.75 85.6828 2170.98 69.3004 2157.49 55.801L2156.78 56.5081L2156.07 57.2152C2169.2 70.3398 2175.75 86.2135 2175.75 104.636H2176.75ZM2156.78 56.5081L2157.49 55.801C2143.99 42.3016 2127.6 35.5401 2108.65 35.5401V36.5401V37.5401C2127.07 37.5401 2142.95 44.0907 2156.07 57.2152L2156.78 56.5081ZM2352.52 108.988L2351.71 108.409L2351.7 108.415L2351.7 108.421L2352.52 108.988ZM2322.57 133.564L2322.19 132.637L2321.13 133.066L2321.7 134.06L2322.57 133.564ZM2364.55 207.036V208.036H2366.28L2365.42 206.54L2364.55 207.036ZM2325.38 207.036L2324.52 207.537L2324.81 208.036H2325.38V207.036ZM2265.99 104.38L2266 103.38L2264.25 103.365L2265.13 104.881L2265.99 104.38ZM2296.46 104.636L2296.45 105.636H2296.46V104.636ZM2320.26 94.6521L2319.57 93.9318L2319.56 93.9384L2319.56 93.945L2320.26 94.6521ZM2320.26 46.5241L2319.56 47.2312L2319.56 47.2379L2319.57 47.2444L2320.26 46.5241ZM2228.1 36.5401L2227.4 37.2472L2227.69 37.5401H2228.1V36.5401ZM2224.26 32.7001L2223.4 33.2017L2223.46 33.3148L2223.56 33.4072L2224.26 32.7001ZM2206.6 2.23613V1.23613H2204.86L2205.74 2.73773L2206.6 2.23613ZM2344.58 22.2041L2345.3 21.5037L2345.29 21.497L2344.58 22.2041ZM2352.52 108.988L2351.7 108.421C2343.86 119.793 2334.03 127.852 2322.19 132.637L2322.57 133.564L2322.94 134.491C2335.17 129.548 2345.31 121.224 2353.34 109.555L2352.52 108.988ZM2322.57 133.564L2321.7 134.06L2363.68 207.532L2364.55 207.036L2365.42 206.54L2323.44 133.068L2322.57 133.564ZM2364.55 207.036V206.036H2325.38V207.036V208.036H2364.55V207.036ZM2325.38 207.036L2326.25 206.535L2266.86 103.879L2265.99 104.38L2265.13 104.881L2324.52 207.537L2325.38 207.036ZM2265.99 104.38L2265.98 105.38L2296.45 105.636L2296.46 104.636L2296.46 103.636L2266 103.38L2265.99 104.38ZM2296.46 104.636V105.636C2305.94 105.636 2314.13 102.198 2320.97 95.3592L2320.26 94.6521L2319.56 93.945C2313.08 100.418 2305.4 103.636 2296.46 103.636V104.636ZM2320.26 94.6521L2320.96 95.3725C2328.07 88.5212 2331.5 80.066 2331.5 70.3321H2330.5H2329.5C2329.5 79.5423 2326.28 87.4711 2319.57 93.9318L2320.26 94.6521ZM2330.5 70.3321H2331.5C2331.5 60.8418 2328.06 52.6465 2320.96 45.8038L2320.26 46.5241L2319.57 47.2444C2326.29 53.7137 2329.5 61.3905 2329.5 70.3321H2330.5ZM2320.26 46.5241L2320.97 45.817C2314.13 38.978 2305.94 35.5401 2296.46 35.5401V36.5401V37.5401C2305.4 37.5401 2313.08 40.7583 2319.56 47.2312L2320.26 46.5241ZM2296.46 36.5401V35.5401H2228.1V36.5401V37.5401H2296.46V36.5401ZM2228.1 36.5401L2228.81 35.833L2224.97 31.993L2224.26 32.7001L2223.56 33.4072L2227.4 37.2472L2228.1 36.5401ZM2224.26 32.7001L2225.13 32.1985L2207.47 1.73453L2206.6 2.23613L2205.74 2.73773L2223.4 33.2017L2224.26 32.7001ZM2206.6 2.23613V3.23613H2296.46V2.23613V1.23613H2206.6V2.23613ZM2296.46 2.23613V3.23613C2314.88 3.23613 2330.75 9.78665 2343.88 22.9112L2344.58 22.2041L2345.29 21.497C2331.79 7.99759 2315.41 1.23613 2296.46 1.23613V2.23613ZM2344.58 22.2041L2343.87 22.9045C2357.01 36.292 2363.55 51.915 2363.55 70.3321H2364.55H2365.55C2365.55 51.3732 2358.79 35.2522 2345.3 21.5038L2344.58 22.2041ZM2364.55 70.3321H2363.55C2363.55 84.4745 2359.77 97.069 2351.71 108.409L2352.52 108.988L2353.33 109.568C2361.66 97.8673 2365.55 84.8618 2365.55 70.3321H2364.55ZM2461 172.732V171.732H2460.58L2460.29 172.028L2461 172.732ZM2563.4 172.732H2564.4V171.732H2563.4V172.732ZM2563.4 207.036V208.036H2564.4V207.036H2563.4ZM2426.95 207.036L2426.24 206.332L2424.55 208.036H2426.95V207.036ZM2426.95 2.23613V1.23613H2425.95V2.23613H2426.95ZM2461 2.23613H2462V1.23613H2461V2.23613ZM2461 126.396L2461.71 127.101L2462 126.808V126.396H2461ZM2426.95 160.7H2425.95V163.127L2427.66 161.405L2426.95 160.7ZM2461 172.732V173.732H2563.4V172.732V171.732H2461V172.732ZM2563.4 172.732H2562.4V207.036H2563.4H2564.4V172.732H2563.4ZM2563.4 207.036V206.036H2426.95V207.036V208.036H2563.4V207.036ZM2426.95 207.036L2427.66 207.741L2461.71 173.437L2461 172.732L2460.29 172.028L2426.24 206.332L2426.95 207.036ZM2426.95 2.23613V3.23613H2461V2.23613V1.23613H2426.95V2.23613ZM2461 2.23613H2460V7.86812H2461H2462V2.23613H2461ZM2461 7.86812H2460V126.396H2461H2462V7.86812H2461ZM2461 126.396L2460.29 125.692L2426.24 159.996L2426.95 160.7L2427.66 161.405L2461.71 127.101L2461 126.396ZM2426.95 160.7H2427.95V7.86812H2426.95H2425.95V160.7H2426.95ZM2426.95 7.86812H2427.95V2.23613H2426.95H2425.95V7.86812H2426.95ZM2742.86 65.2121L2743.78 64.8113L2743.77 64.8025L2742.86 65.2121ZM2742.86 144.06L2743.77 144.47L2743.78 144.461L2742.86 144.06ZM2720.84 176.828L2721.55 177.535L2721.56 177.525L2720.84 176.828ZM2688.08 198.844L2687.68 197.925L2687.68 197.928L2688.08 198.844ZM2580.3 207.036L2579.59 206.332L2577.9 208.036H2580.3V207.036ZM2614.35 172.732V171.732H2613.93L2613.64 172.028L2614.35 172.732ZM2675.02 167.612L2675.4 168.539L2675.41 168.534L2675.42 168.528L2675.02 167.612ZM2696.78 152.764L2696.06 152.072V152.072L2696.78 152.764ZM2711.37 131.004L2712.29 131.405L2712.29 131.395L2711.37 131.004ZM2711.37 78.2681L2712.29 77.8775L2712.29 77.8673L2711.37 78.2681ZM2696.52 56.5081L2695.82 57.2152V57.2152L2696.52 56.5081ZM2674.76 41.6601L2675.16 40.744L2675.15 40.7386L2675.14 40.7337L2674.76 41.6601ZM2614.35 36.5401L2613.64 37.2446L2613.93 37.5401H2614.35V36.5401ZM2580.3 2.23613V1.23613H2577.9L2579.59 2.94058L2580.3 2.23613ZM2688.08 10.4281L2688.48 9.51195L2688.47 9.50899L2688.08 10.4281ZM2742.86 65.2121L2741.94 65.6129C2747.26 77.7638 2749.8 90.6818 2749.8 104.636H2750.8H2751.8C2751.8 90.4304 2749.21 77.2365 2743.78 64.8113L2742.86 65.2121ZM2750.8 104.636H2749.8C2749.8 118.59 2747.26 131.508 2741.94 143.659L2742.86 144.06L2743.78 144.461C2749.21 132.036 2751.8 118.842 2751.8 104.636H2750.8ZM2742.86 144.06L2741.95 143.651C2736.36 156.096 2729.26 166.748 2720.13 176.131L2720.84 176.828L2721.56 177.525C2730.86 167.964 2738.1 157.113 2743.77 144.47L2742.86 144.06ZM2720.84 176.828L2720.14 176.121C2711.01 185.244 2700.11 192.597 2687.68 197.925L2688.08 198.844L2688.47 199.763C2701.13 194.339 2712.24 186.844 2721.55 177.535L2720.84 176.828ZM2688.08 198.844L2687.68 197.928C2675.52 203.248 2662.34 206.036 2648.4 206.036V207.036V208.036C2662.61 208.036 2676.06 205.192 2688.48 199.76L2688.08 198.844ZM2648.4 207.036V206.036H2580.3V207.036V208.036H2648.4V207.036ZM2580.3 207.036L2581.01 207.741L2615.06 173.437L2614.35 172.732L2613.64 172.028L2579.59 206.332L2580.3 207.036ZM2614.35 172.732V173.732H2648.4V172.732V171.732H2614.35V172.732ZM2648.4 172.732V173.732C2658 173.732 2667.08 171.916 2675.4 168.539L2675.02 167.612L2674.64 166.686C2666.57 169.965 2657.74 171.732 2648.4 171.732V172.732ZM2675.02 167.612L2675.42 168.528C2683.71 164.9 2691.25 159.966 2697.5 153.457L2696.78 152.764L2696.06 152.072C2690.02 158.362 2682.71 163.156 2674.62 166.696L2675.02 167.612ZM2696.78 152.764L2697.5 153.457C2703.72 146.975 2708.66 139.709 2712.29 131.405L2711.37 131.004L2710.46 130.603C2706.92 138.683 2702.12 145.753 2696.06 152.072L2696.78 152.764ZM2711.37 131.004L2712.29 131.395C2715.93 122.824 2717.75 113.988 2717.75 104.636H2716.75H2715.75C2715.75 113.717 2713.98 122.288 2710.45 130.614L2711.37 131.004ZM2716.75 104.636H2717.75C2717.75 95.2846 2715.93 86.4479 2712.29 77.8776L2711.37 78.2681L2710.45 78.6587C2713.98 86.9844 2715.75 95.5557 2715.75 104.636H2716.75ZM2711.37 78.2681L2712.29 77.8673C2708.65 69.562 2703.72 62.2899 2697.23 55.801L2696.52 56.5081L2695.82 57.2152C2702.13 63.5263 2706.92 70.5902 2710.46 78.6689L2711.37 78.2681ZM2696.52 56.5081L2697.23 55.801C2691 49.5699 2683.47 44.3786 2675.16 40.744L2674.76 41.6601L2674.36 42.5763C2682.44 46.1097 2689.76 51.1583 2695.82 57.2152L2696.52 56.5081ZM2674.76 41.6601L2675.14 40.7337C2666.83 37.3572 2657.74 35.5401 2648.4 35.5401V36.5401V37.5401C2657.48 37.5401 2666.31 39.307 2674.39 42.5866L2674.76 41.6601ZM2648.4 36.5401V35.5401H2614.35V36.5401V37.5401H2648.4V36.5401ZM2614.35 36.5401L2615.06 35.8357L2581.01 1.53168L2580.3 2.23613L2579.59 2.94058L2613.64 37.2446L2614.35 36.5401ZM2580.3 2.23613V3.23613H2648.4V2.23613V1.23613H2580.3V2.23613ZM2648.4 2.23613V3.23613C2662.34 3.23613 2675.26 6.02281 2687.68 11.3473L2688.08 10.4281L2688.47 9.50899C2675.81 4.08144 2662.62 1.23613 2648.4 1.23613V2.23613ZM2688.08 10.4281L2687.68 11.3443C2699.85 16.6726 2710.76 24.0273 2719.88 33.1512L2720.59 32.4441L2721.29 31.737C2711.99 22.4289 2700.87 14.9357 2688.48 9.51198L2688.08 10.4281ZM2720.59 32.4441L2719.88 33.1512C2729.26 42.529 2736.36 53.1772 2741.95 65.6217L2742.86 65.2121L2743.77 64.8025C2738.1 52.159 2730.86 41.3033 2721.29 31.737L2720.59 32.4441Z" fill="#F10A0A" mask="url(#path-1-outside-1_213_10)"/>
</svg>
