<svg width="512" height="512" viewBox="0 0 512 512" fill="none" xmlns="http://www.w3.org/2000/svg">
<path d="M125.952 444.616C100.864 433.864 79.36 419.016 60.416 400.584C41.984 381.64 27.136 360.136 16.384 335.048C5.632 309.96 0 283.848 0 256.2C0 228.04 5.632 201.416 16.384 176.328C27.136 151.752 41.984 130.248 60.416 111.816C79.36 92.872 100.864 78.536 125.952 67.784C150.528 57.032 177.152 51.4 205.312 51.4C233.472 51.4 260.096 56.52 284.672 67.272C309.248 78.024 331.264 92.872 350.208 111.816L301.568 159.432C274.432 132.808 242.176 120.008 205.312 120.008C186.368 120.008 168.448 123.592 152.064 130.248C135.168 137.416 120.832 147.144 108.544 159.944C96.256 172.232 86.528 186.568 79.36 202.952C72.192 219.848 68.608 237.256 68.608 256.2C68.608 275.144 72.192 292.552 79.36 309.448C86.528 325.832 96.256 340.168 109.056 352.456C121.344 365.256 135.68 374.984 152.064 382.152C168.96 388.808 186.368 392.392 205.312 392.392L284.672 445.128C260.096 455.88 233.472 461 205.312 461C177.152 461 150.528 455.368 125.952 444.616Z" fill="white"/>
<mask id="path-2-outside-1_174_40" maskUnits="userSpaceOnUse" x="133" y="182" width="366" height="238" fill="black">
<rect fill="white" x="133" y="182" width="366" height="238"/>
<path d="M187.394 192.2L251.906 320.456L232.706 358.856L149.25 192.2H187.394ZM444.674 192.2H482.818L380.418 397L315.906 268.744L335.106 230.344L380.418 320.456L444.674 192.2Z"/>
</mask>
<path d="M187.394 192.2L251.906 320.456L232.706 358.856L149.25 192.2H187.394ZM444.674 192.2H482.818L380.418 397L315.906 268.744L335.106 230.344L380.418 320.456L444.674 192.2Z" fill="white"/>
<path d="M187.394 192.2L196.328 187.706L193.558 182.2H187.394V192.2ZM251.906 320.456L260.85 324.928L263.093 320.443L260.84 315.962L251.906 320.456ZM232.706 358.856L223.764 363.334L232.713 381.203L241.65 363.328L232.706 358.856ZM149.25 192.2V182.2H133.059L140.308 196.678L149.25 192.2ZM444.674 192.2V182.2H438.499L435.733 187.721L444.674 192.2ZM482.818 192.2L491.762 196.672L498.998 182.2H482.818V192.2ZM380.418 397L371.484 401.494L380.445 419.307L389.362 401.472L380.418 397ZM315.906 268.744L306.962 264.272L304.719 268.757L306.972 273.238L315.906 268.744ZM335.106 230.344L344.04 225.852L335.081 208.034L326.162 225.872L335.106 230.344ZM380.418 320.456L371.484 324.948L380.434 342.748L389.359 324.935L380.418 320.456ZM187.394 192.2L178.46 196.694L242.972 324.95L251.906 320.456L260.84 315.962L196.328 187.706L187.394 192.2ZM251.906 320.456L242.962 315.984L223.762 354.384L232.706 358.856L241.65 363.328L260.85 324.928L251.906 320.456ZM232.706 358.856L241.648 354.378L158.192 187.722L149.25 192.2L140.308 196.678L223.764 363.334L232.706 358.856ZM149.25 192.2V202.2H187.394V192.2V182.2H149.25V192.2ZM444.674 192.2V202.2H482.818V192.2V182.2H444.674V192.2ZM482.818 192.2L473.874 187.728L371.474 392.528L380.418 397L389.362 401.472L491.762 196.672L482.818 192.2ZM380.418 397L389.352 392.506L324.84 264.25L315.906 268.744L306.972 273.238L371.484 401.494L380.418 397ZM315.906 268.744L324.85 273.216L344.05 234.816L335.106 230.344L326.162 225.872L306.962 264.272L315.906 268.744ZM335.106 230.344L326.172 234.836L371.484 324.948L380.418 320.456L389.352 315.964L344.04 225.852L335.106 230.344ZM380.418 320.456L389.359 324.935L453.615 196.679L444.674 192.2L435.733 187.721L371.477 315.977L380.418 320.456Z" fill="white" mask="url(#path-2-outside-1_174_40)"/>
</svg>
