<?xml version="1.0" encoding="UTF-8"?>
<svg version="1.1" xmlns="http://www.w3.org/2000/svg" width="649" height="649">
<path d="M0 0 C1.36525765 0.64688494 2.73393897 1.28660916 4.10644531 1.91796875 C21.58343287 9.96355188 37.22757789 20.8695593 52.09814453 32.99414062 C53.27376953 33.82558594 53.27376953 33.82558594 54.47314453 34.67382812 C55.00939453 35.10953125 55.54564453 35.54523438 56.09814453 35.99414062 C56.09814453 36.65414062 56.09814453 37.31414062 56.09814453 37.99414062 C56.67048828 38.249375 57.24283203 38.50460938 57.83251953 38.76757812 C60.33988186 40.12501221 62.23119013 41.71388167 64.34814453 43.61914062 C65.40775391 44.56660156 65.40775391 44.56660156 66.48876953 45.53320312 C67.01986328 46.0153125 67.55095703 46.49742187 68.09814453 46.99414062 C67.5844316 51.13031484 66.52160944 53.06878531 63.57080078 55.98242188 C62.86117188 56.68818359 62.15154297 57.39394531 61.42041016 58.12109375 C60.6746875 58.84232422 59.92896484 59.56355469 59.16064453 60.30664062 C58.41878906 61.04720703 57.67693359 61.78777344 56.91259766 62.55078125 C51.3789337 67.99414062 51.3789337 67.99414062 49.09814453 67.99414062 C49.09814453 68.65414062 49.09814453 69.31414062 49.09814453 69.99414062 C48.43814453 69.99414062 47.77814453 69.99414062 47.09814453 69.99414062 C46.69595703 70.89132813 46.69595703 70.89132813 46.28564453 71.80664062 C45.09897047 73.99261916 44.0021534 75.40746656 42.09814453 76.99414062 C41.43814453 76.99414062 40.77814453 76.99414062 40.09814453 76.99414062 C40.09814453 77.65414062 40.09814453 78.31414062 40.09814453 78.99414062 C38.67114258 80.38671875 38.67114258 80.38671875 36.67236328 82.02539062 C33.45416494 84.75813073 30.4714174 87.59712757 27.55517578 90.65039062 C26.79140625 91.44445312 26.02763672 92.23851562 25.24072266 93.05664062 C23.66610652 94.70385013 22.10120589 96.3603937 20.54541016 98.02539062 C19.40555664 99.20101562 19.40555664 99.20101562 18.24267578 100.40039062 C17.56567627 101.11517578 16.88867676 101.82996094 16.19116211 102.56640625 C14.09814453 103.99414062 14.09814453 103.99414062 11.49145508 103.84179688 C8.26297133 102.69834124 6.52989253 100.89623316 4.09814453 98.49414062 C-18.84500297 76.73346866 -53.09512185 61.47271416 -84.90185547 60.99414062 C-85.73330078 60.98044434 -86.56474609 60.96674805 -87.42138672 60.95263672 C-94.25048267 60.85571214 -101.07312408 60.88422921 -107.90185547 60.99414062 C-109.07876953 61.01089844 -110.25568359 61.02765625 -111.46826172 61.04492188 C-127.66514121 61.79976979 -144.2583667 66.14972543 -158.90185547 72.99414062 C-159.5413916 73.28659668 -160.18092773 73.57905273 -160.83984375 73.88037109 C-174.42499648 80.13490522 -186.91977054 87.74145485 -197.83154297 98.04101562 C-199.53370849 99.64683215 -201.25174994 101.11349493 -203.08935547 102.55664062 C-206.75926557 105.73722938 -209.79718816 109.26985819 -212.90185547 112.99414062 C-213.51931641 113.71214844 -214.13677734 114.43015625 -214.77294922 115.16992188 C-230.81704343 134.3776403 -241.64706137 157.59160383 -246.90185547 181.99414062 C-247.08288818 182.83195068 -247.2639209 183.66976074 -247.45043945 184.53295898 C-249.06031276 192.97997732 -249.24097428 201.26164388 -249.2175293 209.82861328 C-249.21437838 212.22670416 -249.23788266 214.62354568 -249.26318359 217.02148438 C-249.30527883 227.37611567 -248.17020932 236.88567768 -245.90185547 246.99414062 C-245.60799617 248.37575295 -245.31519725 249.75759122 -245.0234375 251.13964844 C-240.22260031 273.26927694 -228.56152032 293.91602836 -213.90185547 310.99414062 C-213.42876953 311.5469873 -212.95568359 312.09983398 -212.46826172 312.66943359 C-200.11157323 326.93906471 -186.35427445 337.76989836 -169.90185547 346.99414062 C-169.28310547 347.34347656 -168.66435547 347.6928125 -168.02685547 348.05273438 C-150.49898789 357.79478577 -130.19785642 363.54426957 -110.19140625 364.46655273 C-98.53030643 365.06423909 -91.291606 367.40779293 -82.01611328 374.41796875 C-78.89142175 376.74741546 -75.65956253 378.91031148 -72.43139648 381.09301758 C-69.63784214 382.98341724 -66.85798355 384.89297492 -64.07763672 386.80273438 C-57.86152198 391.04637941 -51.56989137 395.16883143 -45.26507568 399.27880859 C-40.3902821 402.45851475 -35.52473863 405.65238231 -30.65777588 408.84405518 C-28.92846279 409.97671347 -27.19729172 411.1064845 -25.46582031 412.23583984 C-22.33078119 414.28708161 -19.20850001 416.35633678 -16.08935547 418.43164062 C-15.15220703 419.04007813 -14.21505859 419.64851563 -13.24951172 420.27539062 C-12.40646484 420.84128906 -11.56341797 421.4071875 -10.69482422 421.99023438 C-9.95772217 422.4767749 -9.22062012 422.96331543 -8.46118164 423.46459961 C-7.946604 423.96934814 -7.43202637 424.47409668 -6.90185547 424.99414062 C-6.90185547 426.31414062 -6.90185547 427.63414062 -6.90185547 428.99414062 C-21.95622469 434.91589937 -36.67847305 440.07448378 -52.58935547 443.18164062 C-53.44464844 443.34889648 -54.29994141 443.51615234 -55.18115234 443.68847656 C-67.65763643 446.01046228 -79.99827283 446.18050001 -92.65161133 446.17944336 C-95.56525449 446.1816226 -98.47851369 446.19980991 -101.39208984 446.21875 C-112.40569048 446.25189845 -123.01690122 445.72755983 -133.90185547 443.99414062 C-134.90223343 443.83678688 -134.90223343 443.83678688 -135.92282104 443.67625427 C-179.75035579 436.72491103 -219.8694752 415.15369773 -253.13232422 386.38867188 C-254.74536321 384.99404154 -256.36832581 383.61044506 -258.01513672 382.25585938 C-261.66171219 379.25612656 -264.78462406 376.03529987 -267.83544922 372.43164062 C-269.40998798 370.5743397 -271.00428879 368.74833854 -272.62451172 366.93164062 C-280.15085952 358.42762062 -286.71133753 349.50887511 -292.90185547 339.99414062 C-293.59923828 338.92679687 -294.29662109 337.85945313 -295.01513672 336.75976562 C-312.2510449 309.54153787 -323.71602269 279.79626012 -328.90185547 247.99414062 C-329.02044922 247.2706543 -329.13904297 246.54716797 -329.26123047 245.80175781 C-332.67632674 223.65445195 -332.44921564 199.10248451 -328.90185547 176.99414062 C-328.77294922 176.17123535 -328.64404297 175.34833008 -328.51123047 174.50048828 C-321.74715592 132.62429063 -303.01682312 92.85777063 -274.90185547 60.99414062 C-274.47114746 60.50316895 -274.04043945 60.01219727 -273.59667969 59.50634766 C-248.13718805 30.65703995 -217.33851112 9.77580666 -181.90185547 -5.00585938 C-180.7484668 -5.48732422 -180.7484668 -5.48732422 -179.57177734 -5.97851562 C-122.596326 -29.31550426 -55.36358529 -26.23343611 0 0 Z " fill="#FCFCFC" transform="translate(403.90185546875,112.005859375)"/>
<path d="M0 0 C1.01037827 0.00222061 2.02075653 0.00444122 3.06175232 0.00672913 C4.77341331 0.00684242 4.77341331 0.00684242 6.51965332 0.00695801 C7.76129745 0.01211929 9.00294159 0.01728058 10.2822113 0.02259827 C12.17785072 0.02472069 12.17785072 0.02472069 14.11178589 0.02688599 C17.47705394 0.0315487 20.84225495 0.04053972 24.20750427 0.05158997 C27.63930175 0.06180606 31.07110614 0.06638403 34.50291443 0.07142639 C41.2405633 0.08248071 47.9781803 0.09923742 54.71580505 0.12025452 C55.71580505 3.12025452 55.71580505 3.12025452 54.68699646 5.72962952 C54.15251892 6.76603577 53.61804138 7.80244202 53.06736755 8.87025452 C52.47842712 10.02694641 51.88948669 11.18363831 51.28269958 12.37538147 C50.63543712 13.623691 49.98813817 14.87198162 49.34080505 16.12025452 C48.03459853 18.6741484 46.73496285 21.23137309 45.43455505 23.78822327 C45.1113327 24.42124863 44.78811035 25.05427399 44.45509338 25.70648193 C41.80857969 30.90007433 39.29578063 36.14661529 36.84080505 41.43275452 C33.95838035 47.6048673 30.90684136 53.6458832 27.66355896 59.63563538 C21.96950292 70.15959737 16.77679484 80.92224098 11.71580505 91.76210022 C8.50100107 98.62730784 5.11478191 105.40061906 1.69822693 112.16712952 C0.74375615 114.06468575 -0.20162636 115.96645311 -1.14356995 117.87025452 C-4.5686034 124.78277319 -8.07355192 131.64551849 -11.66505432 138.47328186 C-16.74664891 148.13436868 -21.60343544 157.85698737 -26.2256012 167.74525452 C-29.03887767 173.75597063 -32.02767247 179.67528441 -35.01612854 185.60023499 C-37.47234556 190.48145795 -39.91163096 195.3711704 -42.3540802 200.2592926 C-43.28199041 202.11584372 -44.21048265 203.97210256 -45.13917542 205.82826233 C-48.90257883 213.35050582 -48.90257883 213.35050582 -52.6474762 220.88197327 C-57.3618693 230.38370946 -62.2831001 239.76635489 -67.28419495 249.12025452 C-69.92419495 249.12025452 -72.56419495 249.12025452 -75.28419495 249.12025452 C-75.89005432 247.9691217 -76.4959137 246.81798889 -77.12013245 245.63197327 C-77.51990295 244.87255432 -77.91967346 244.11313538 -78.33155823 243.33070374 C-79.2288495 241.62555331 -80.12564655 239.92014274 -81.02198792 238.2144928 C-83.30128669 233.878827 -85.58685117 229.54687112 -87.89356995 225.22572327 C-92.25508966 217.03576783 -96.433754 208.81052218 -100.32032776 200.38441467 C-102.6100259 195.4554899 -105.07945012 190.65304089 -107.65919495 185.87025452 C-111.4581932 178.82317015 -114.95310464 171.66206428 -118.30714417 164.39271545 C-120.98489823 158.65285178 -123.87639311 153.04465805 -126.83888245 147.44837952 C-132.30463354 137.12139865 -137.6532608 126.73803752 -142.92018127 116.3082428 C-143.96865273 114.23835722 -145.02284454 112.17136079 -146.08229065 110.10707092 C-147.63562309 107.07898388 -149.17074174 104.04228134 -150.7021637 101.00306702 C-151.17905136 100.08228363 -151.65593903 99.16150024 -152.14727783 98.21281433 C-152.57555374 97.35356354 -153.00382965 96.49431274 -153.44508362 95.60902405 C-154.01606026 94.48586288 -154.01606026 94.48586288 -154.59857178 93.3400116 C-155.86381594 89.24368753 -154.27131369 85.72738076 -152.4990387 82.00306702 C-152.1373761 81.23905579 -151.7757135 80.47504456 -151.40309143 79.68788147 C-151.01323059 78.88181458 -150.62336975 78.07574768 -150.22169495 77.24525452 C-149.61660095 75.98104675 -149.61660095 75.98104675 -148.99928284 74.69129944 C-146.21928988 68.93036986 -143.29893925 63.2605734 -140.24830627 57.63905334 C-136.40981821 50.55844978 -132.85546 43.33823389 -129.28419495 36.12025452 C-128.61837659 34.78649736 -127.9522108 33.4529124 -127.28419495 32.12025452 C-126.29419495 32.12025452 -125.30419495 32.12025452 -124.28419495 32.12025452 C-116.23968759 47.44855692 -108.36992251 62.85780779 -100.6396637 78.34681702 C-100.22615788 79.17526878 -99.81265205 80.00372055 -99.38661575 80.85727692 C-96.41209896 86.81850377 -93.44156146 92.7817099 -90.47169495 98.74525452 C-87.4554421 104.80147838 -84.4377898 110.85699783 -81.41684914 116.91088486 C-80.220285 119.31047653 -79.0261329 121.71125818 -77.83209229 124.11210632 C-77.10945544 125.56100657 -76.3867089 127.00985212 -75.66383362 128.45863342 C-75.33409546 129.12327606 -75.0043573 129.7879187 -74.66462708 130.47270203 C-73.27343149 133.49812769 -73.27343149 133.49812769 -71.28419495 136.12025452 C-70.80313293 135.15160461 -70.32207092 134.18295471 -69.82643127 133.18495178 C-66.32353274 126.14681958 -62.79263107 119.12543497 -59.1709137 112.14759827 C-58.83008255 111.49082092 -58.4892514 110.83404358 -58.13809204 110.15736389 C-57.43996254 108.81257168 -56.74174518 107.46782508 -56.04344177 106.12312317 C-50.13308595 94.73324699 -44.36753963 83.30115124 -38.90089417 71.68983459 C-36.14230465 65.84846009 -33.22102196 60.13513806 -30.1252594 54.46644592 C-27.70954916 50.01076138 -25.53281204 45.47151282 -23.40919495 40.87025452 C-19.7497258 32.94732617 -15.72471614 25.24791325 -11.6240387 17.54603577 C-9.10114607 12.80120211 -6.70320868 8.00276986 -4.3427887 3.17494202 C-2.78250184 0.14648855 -2.78250184 0.14648855 0 0 Z " fill="#FAFAFA" transform="translate(557.2841949462891,238.87974548339844)"/>
<path d="M0 0 C7.34506852 -0.18561146 14.68962934 -0.32762784 22.03657055 -0.41449738 C25.4484831 -0.45619925 28.85878819 -0.51271956 32.26977539 -0.60351562 C36.19397515 -0.70731526 40.11753129 -0.74593142 44.04296875 -0.78125 C45.26396774 -0.82254028 46.48496674 -0.86383057 47.7429657 -0.90637207 C56.01538884 -0.91075371 56.01538884 -0.91075371 58.8429718 1.70472717 C60.15283097 3.76409664 61.09836256 5.73623509 62 8 C62.64175676 9.23343101 63.29245825 10.46230487 63.95703125 11.68359375 C64.58013123 12.93260643 65.19848106 14.1839981 65.8125 15.4375 C66.1523291 16.12287842 66.4921582 16.80825684 66.84228516 17.5144043 C68.89910512 21.68536233 70.89056185 25.88367748 72.84790039 30.10209656 C75.7851225 36.42324186 78.83175807 42.64393915 82.12890625 48.78515625 C87.08486164 58.11611591 91.81877205 67.55438162 96.53515625 77.0078125 C96.91791214 77.77480406 97.30066803 78.54179562 97.69502258 79.33202934 C100.48700981 84.92827833 103.27514941 90.52644052 106.0625 96.125 C108.85854648 101.7409872 111.65603448 107.35624759 114.45693779 112.9698143 C115.55568243 115.17362343 116.65194973 117.37865158 117.74806213 119.58377075 C118.44266016 120.97665253 119.13739584 122.36946568 119.83227539 123.76220703 C120.16622346 124.43531481 120.50017153 125.10842258 120.84423923 125.80192757 C122.66971383 129.45345103 124.56594504 133.04857833 126.55978394 136.61126709 C126.9814833 137.37397352 127.40318266 138.13667995 127.83766079 138.9224987 C128.64948123 140.38307003 129.47473949 141.8362819 130.31548405 143.28039742 C132.10873799 146.52060532 133.02022505 148.38247487 132.89682007 152.15036011 C131.98080584 155.06098932 130.9168289 157.68779211 129.56323242 160.42285156 C129.05567917 161.45702209 128.54812592 162.49119263 128.02519226 163.55670166 C127.4741835 164.65689636 126.92317474 165.75709106 126.35546875 166.890625 C125.78927322 168.0315863 125.2230777 169.17254761 124.63972473 170.3480835 C123.4424744 172.75405291 122.2419377 175.15803452 121.03588867 177.55957031 C119.4922601 180.63520358 117.96707398 183.71957937 116.44665051 186.80673599 C114.98983848 189.75690319 113.51544484 192.69825261 112.04296875 195.640625 C111.49803268 196.74891663 110.95309662 197.85720825 110.39164734 198.99908447 C109.8746376 200.02064636 109.35762787 201.04220825 108.82495117 202.09472656 C108.37496262 202.99596252 107.92497406 203.89719849 107.46134949 204.82574463 C105.85423605 207.21687355 104.66007901 207.9884216 102 209 C82.28902181 169.57804362 62.57804362 130.15608724 42.86706543 90.73413086 C42.17251865 89.34504155 42.17251865 89.34504155 41.46394062 87.92788982 C40.5621974 86.12439774 39.66046316 84.32090116 38.75873852 82.51739979 C36.76220735 78.52424504 34.7655674 74.53114484 32.76850891 70.53825378 C29.29432429 63.59172726 25.82325411 56.64366735 22.3589325 49.69221497 C20.20088501 45.36247492 18.04048757 41.03390852 15.88012695 36.70532227 C14.74205791 34.42409546 13.60469978 32.14251386 12.46801758 29.8605957 C10.80738008 26.52721659 9.1441783 23.19512792 7.48046875 19.86328125 C6.97420456 18.84559158 6.46794037 17.82790192 5.94633484 16.77937317 C5.47186417 15.83035629 4.99739349 14.88133942 4.50854492 13.90356445 C3.88854866 12.66024101 3.88854866 12.66024101 3.25602722 11.39179993 C2.01254158 8.91902306 2.01254158 8.91902306 0.28071594 6.44352722 C-1 4 -1 4 -0.6875 1.6875 C-0.460625 1.130625 -0.23375 0.57375 0 0 Z " fill="#FF0000" transform="translate(205,239)"/>
<path d="M0 0 C7.34506852 -0.18561146 14.68962934 -0.32762784 22.03657055 -0.41449738 C25.4484831 -0.45619925 28.85878819 -0.51271956 32.26977539 -0.60351562 C36.19397515 -0.70731526 40.11753129 -0.74593142 44.04296875 -0.78125 C45.26396774 -0.82254028 46.48496674 -0.86383057 47.7429657 -0.90637207 C56.01538884 -0.91075371 56.01538884 -0.91075371 58.8429718 1.70472717 C60.15283097 3.76409664 61.09836256 5.73623509 62 8 C62.64175676 9.23343101 63.29245825 10.46230487 63.95703125 11.68359375 C64.58013123 12.93260643 65.19848106 14.1839981 65.8125 15.4375 C66.1523291 16.12287842 66.4921582 16.80825684 66.84228516 17.5144043 C68.89910512 21.68536233 70.89056185 25.88367748 72.84790039 30.10209656 C75.7851225 36.42324186 78.83175807 42.64393915 82.12890625 48.78515625 C87.08486164 58.11611591 91.81877205 67.55438162 96.53515625 77.0078125 C96.91791214 77.77480406 97.30066803 78.54179562 97.69502258 79.33202934 C100.48700981 84.92827833 103.27514941 90.52644052 106.0625 96.125 C108.85854648 101.7409872 111.65603448 107.35624759 114.45693779 112.9698143 C115.55568243 115.17362343 116.65194973 117.37865158 117.74806213 119.58377075 C118.44266016 120.97665253 119.13739584 122.36946568 119.83227539 123.76220703 C120.16622346 124.43531481 120.50017153 125.10842258 120.84423923 125.80192757 C122.66971383 129.45345103 124.56594504 133.04857833 126.55978394 136.61126709 C126.9814833 137.37397352 127.40318266 138.13667995 127.83766079 138.9224987 C128.64948123 140.38307003 129.47473949 141.8362819 130.31548405 143.28039742 C132.10873799 146.52060532 133.02022505 148.38247487 132.89682007 152.15036011 C131.98080584 155.06098932 130.9168289 157.68779211 129.56323242 160.42285156 C129.05567917 161.45702209 128.54812592 162.49119263 128.02519226 163.55670166 C127.4741835 164.65689636 126.92317474 165.75709106 126.35546875 166.890625 C125.78927322 168.0315863 125.2230777 169.17254761 124.63972473 170.3480835 C123.4424744 172.75405291 122.2419377 175.15803452 121.03588867 177.55957031 C119.4922601 180.63520358 117.96707398 183.71957937 116.44665051 186.80673599 C114.98983848 189.75690319 113.51544484 192.69825261 112.04296875 195.640625 C111.49803268 196.74891663 110.95309662 197.85720825 110.39164734 198.99908447 C109.8746376 200.02064636 109.35762787 201.04220825 108.82495117 202.09472656 C108.37496262 202.99596252 107.92497406 203.89719849 107.46134949 204.82574463 C105.85423605 207.21687355 104.66007901 207.9884216 102 209 C82.28902181 169.57804362 62.57804362 130.15608724 42.86706543 90.73413086 C42.17251865 89.34504155 42.17251865 89.34504155 41.46394062 87.92788982 C40.5621974 86.12439774 39.66046316 84.32090116 38.75873852 82.51739979 C36.76220735 78.52424504 34.7655674 74.53114484 32.76850891 70.53825378 C29.29432429 63.59172726 25.82325411 56.64366735 22.3589325 49.69221497 C20.20088501 45.36247492 18.04048757 41.03390852 15.88012695 36.70532227 C14.74205791 34.42409546 13.60469978 32.14251386 12.46801758 29.8605957 C10.80738008 26.52721659 9.1441783 23.19512792 7.48046875 19.86328125 C6.97420456 18.84559158 6.46794037 17.82790192 5.94633484 16.77937317 C5.47186417 15.83035629 4.99739349 14.88133942 4.50854492 13.90356445 C3.88854866 12.66024101 3.88854866 12.66024101 3.25602722 11.39179993 C2.01254158 8.91902306 2.01254158 8.91902306 0.28071594 6.44352722 C-1 4 -1 4 -0.6875 1.6875 C-0.460625 1.130625 -0.23375 0.57375 0 0 Z M2 2 C2.83523509 5.62849471 4.19597677 8.62050025 5.87890625 11.953125 C6.47123047 13.13132813 7.06355469 14.30953125 7.67382812 15.5234375 C8.30325937 16.76568887 8.93281682 18.00787631 9.5625 19.25 C10.1650876 20.44512397 10.76730419 21.64043509 11.36914062 22.8359375 C12.6026876 25.28533755 13.83814892 27.73375948 15.07470703 30.18164062 C18.06462737 36.10543816 21.02621068 42.04342484 23.99093628 47.9798584 C25.65956047 51.32043746 27.32985972 54.66017873 29 58 C29.66667481 59.33332926 30.33334147 60.6666626 31 62 C31.33 62.66 31.66 63.32 32 64 C41 82 50 100 59 118 C59.32988419 118.65972305 59.65976837 119.31944611 59.99964905 119.99916077 C60.66763199 121.33521834 61.33546803 122.67134937 62.00315857 124.0075531 C63.6485019 127.29981755 65.29620912 130.59085038 66.94946289 133.87915039 C70.55675967 141.06090375 74.11531591 148.26419242 77.62109375 155.49609375 C78.0151944 156.30881744 78.40929504 157.12154114 78.81533813 157.95889282 C80.42639639 161.28296055 82.03669104 164.60738624 83.64282227 167.93383789 C88.62909964 178.25554339 93.75361494 188.47615106 99.17211914 198.57836914 C100.48591359 201.03767584 101.7749903 203.49602422 103 206 C105.58644335 203.66890106 107.07489523 201.28986319 108.68310547 198.21240234 C109.19308075 197.24064056 109.70305603 196.26887878 110.22848511 195.26766968 C112.51982918 190.81875741 114.80664335 186.36784123 117.07226562 181.90576172 C118.27197728 179.55605561 119.48453403 177.21286287 120.70996094 174.87646484 C122.47927849 171.50218477 124.20823831 168.10983789 125.9296875 164.7109375 C126.48260468 163.67311127 127.03552185 162.63528503 127.60519409 161.56600952 C130.05979108 156.61407744 131.65330692 153.34465053 129.88598633 147.92236328 C129.29708543 146.59652436 128.67348171 145.28494183 128 144 C127.63519531 143.1853125 127.27039063 142.370625 126.89453125 141.53125 C126.53746094 140.8609375 126.18039062 140.190625 125.8125 139.5 C124.14963258 136.29520097 122.55491833 133.07322046 121.0390625 129.796875 C120.69254639 129.04857422 120.34603027 128.30027344 119.98901367 127.52929688 C119.30320236 126.04270891 118.62090211 124.55449465 117.94262695 123.06445312 C116.48431888 119.91552722 115.03169798 117.04686911 113.08203125 114.1640625 C110.14992905 109.70814734 108.00496432 104.95096382 105.75 100.125 C104.78108938 98.07367921 103.81102936 96.02290094 102.83984375 93.97265625 C102.36272949 92.96477051 101.88561523 91.95688477 101.39404297 90.91845703 C98.35903498 84.56460668 95.18169736 78.28134522 92 72 C91.34 72 90.68 72 90 72 C89.93176025 71.21157715 89.86352051 70.4231543 89.79321289 69.61083984 C88.71941705 64.72273874 86.57879528 60.66377343 84.30859375 56.2265625 C83.61154076 54.8409462 83.61154076 54.8409462 82.90040588 53.42733765 C81.42026348 50.48937161 79.92906965 47.55717833 78.4375 44.625 C77.42960341 42.62927734 76.42243358 40.63318747 75.41601562 38.63671875 C72.95241535 33.75352631 70.4797272 28.87502105 68 24 C67.34 24 66.68 24 66 24 C65.855625 23.05125 65.71125 22.1025 65.5625 21.125 C65.17064601 18.1065506 65.17064601 18.1065506 64 16 C63.34 16 62.68 16 62 16 C61.505 13.03 61.505 13.03 61 10 C60.34 10 59.68 10 59 10 C58.87625 9.05125 58.7525 8.1025 58.625 7.125 C58.28312823 3.91332809 58.28312823 3.91332809 56 2 C53.61367376 1.70734513 53.61367376 1.70734513 50.81591797 1.77294922 C49.19446365 1.77317581 49.19446365 1.77317581 47.54025269 1.77340698 C45.78396042 1.78889084 45.78396042 1.78889084 43.9921875 1.8046875 C42.1985527 1.80893234 42.1985527 1.80893234 40.36868286 1.81326294 C36.53735481 1.82448695 32.70625778 1.84959569 28.875 1.875 C26.28255545 1.88502692 23.69010725 1.89415327 21.09765625 1.90234375 C14.73169158 1.92443354 8.36586229 1.95793294 2 2 Z " fill="#D24C4C" transform="translate(205,239)"/>
<path d="M0 0 C18.81 0 37.62 0 57 0 C62.57851598 10.59918036 67.97697203 20.98368704 72.99633789 31.80322266 C74.88972437 35.82448209 76.9545009 39.73449932 79.05859375 43.6484375 C84.19370195 53.31135902 89.08753106 63.0920669 93.97265625 72.8828125 C94.3773753 73.69373604 94.78209435 74.50465958 95.19907761 75.34015656 C98.15637292 81.2670329 101.1098294 87.19581866 104.0625 93.125 C107.02376688 99.07140702 109.98646383 105.01709332 112.95257378 110.96108627 C114.11779115 113.29785212 115.28053564 115.63583606 116.44313049 117.97390747 C117.17817609 119.44768038 117.91335745 120.9213856 118.64868164 122.39501953 C119.00101396 123.1048958 119.35334627 123.81477207 119.71635532 124.54615974 C121.5934152 128.30084224 123.53768845 132.00094962 125.5866394 135.66497803 C126.00921996 136.42944685 126.43180052 137.19391567 126.86718655 137.98155022 C127.67653449 139.4373889 128.49935925 140.88584771 129.33783817 142.32510567 C131.17806128 145.64793252 132.03073748 147.40566101 131.83023071 151.28265381 C130.80770768 154.62937301 129.42818703 157.59148854 127.83984375 160.7109375 C127.53051407 161.32393707 127.22118439 161.93693665 126.90248108 162.56851196 C125.92166085 164.50792613 124.92981374 166.44144573 123.9375 168.375 C123.2668389 169.69623961 122.59690944 171.01785087 121.92773438 172.33984375 C120.29359525 175.56423725 118.6495238 178.78344445 117 182 C116.34 182 115.68 182 115 182 C116.27033551 177.87245335 117.82385415 174.24883625 119.92578125 170.48046875 C120.47427734 169.45759766 121.02277344 168.43472656 121.58789062 167.38085938 C122.73719159 165.25276528 123.90655255 163.13538284 125.09570312 161.02929688 C128.15963125 155.50723692 128.15963125 155.50723692 128.76196289 149.39111328 C128.02147253 147.10975478 127.13965235 145.10689931 126 143 C125.63519531 142.1853125 125.27039063 141.370625 124.89453125 140.53125 C124.53746094 139.8609375 124.18039062 139.190625 123.8125 138.5 C122.14963258 135.29520097 120.55491833 132.07322046 119.0390625 128.796875 C118.69254639 128.04857422 118.34603027 127.30027344 117.98901367 126.52929688 C117.30320236 125.04270891 116.62090211 123.55449465 115.94262695 122.06445312 C114.48554628 118.91817756 113.03490057 116.05156738 111.0859375 113.171875 C108.12859674 108.67494486 105.96355508 103.86922968 103.6875 99 C102.71723598 96.94349573 101.74588289 94.88750493 100.7734375 92.83203125 C100.30260742 91.8363916 99.83177734 90.84075195 99.34667969 89.81494141 C97.03416662 84.98113509 94.59805426 80.21261589 92.14453125 75.44921875 C91 73 91 73 91 71 C90.34 71 89.68 71 89 71 C88.81856445 70.49275391 88.63712891 69.98550781 88.45019531 69.46289062 C84.92689501 60.14370213 80.25802258 51.36904442 75.75 42.5 C74.09439398 39.24186845 72.44406316 35.98114374 70.796875 32.71875 C70.41569519 31.97298706 70.03451538 31.22722412 69.64178467 30.4588623 C67 25.22552225 67 25.22552225 67 23 C66.34 23 65.68 23 65 23 C64.34 20.36 63.68 17.72 63 15 C62.34 15 61.68 15 61 15 C60.505 12.03 60.505 12.03 60 9 C59.34 9 58.68 9 58 9 C57.01 6.69 56.02 4.38 55 2 C37.18 1.67 19.36 1.34 1 1 C0.67 1.66 0.34 2.32 0 3 C0 2.01 0 1.02 0 0 Z " fill="#C45050" transform="translate(206,240)"/>
<path d="M0 0 C18.81 0 37.62 0 57 0 C57 0.33 57 0.66 57 1 C38.52 1 20.04 1 1 1 C2.98 4.63 4.96 8.26 7 12 C8.8100896 15.55497424 10.60454737 19.11311101 12.375 22.6875 C13.33462242 24.61589188 14.29425793 26.54427725 15.25390625 28.47265625 C15.71941895 29.40996582 16.18493164 30.34727539 16.66455078 31.31298828 C18.21088575 34.424316 19.76354041 37.53243204 21.3190918 40.63916016 C21.9718553 41.94404546 22.62310679 43.24968845 23.27270508 44.55615234 C24.77174105 47.56838469 26.29030223 50.56654054 27.859375 53.54296875 C28.42140625 54.62191406 28.9834375 55.70085937 29.5625 56.8125 C30.05878906 57.74707031 30.55507812 58.68164062 31.06640625 59.64453125 C32 62 32 62 31 65 C28.69324241 62.09476075 26.96701972 59.17274426 25.3203125 55.85180664 C24.80968262 54.82716812 24.29905273 53.8025296 23.77294922 52.74684143 C23.22912598 51.64573532 22.68530273 50.54462921 22.125 49.41015625 C21.5592627 48.27348007 20.99352539 47.13680389 20.41064453 45.96568298 C18.90970721 42.94901893 17.41203482 39.9307838 15.91625977 36.91156006 C13.8108024 32.66263713 11.70122075 28.41576999 9.58935547 24.17002869 C8.46636542 21.91182436 7.34551583 19.65255403 6.22705078 17.3921051 C5.7164209 16.36431442 5.20579102 15.33652374 4.6796875 14.27758789 C4.23351074 13.37698135 3.78733398 12.47637482 3.32763672 11.54847717 C2.0275496 8.93864008 2.0275496 8.93864008 0.27001953 6.42015076 C-1 4 -1 4 0 0 Z " fill="#9F3C3C" transform="translate(205,239)"/>
<path d="M0 0 C3 1 3 1 4.45117188 3.44238281 C5.20237305 5.0564502 5.20237305 5.0564502 5.96875 6.703125 C6.24571716 7.28915497 6.52268433 7.87518494 6.80804443 8.47897339 C7.40388686 9.74162743 7.99526259 11.00639692 8.5826416 12.27301025 C10.12208497 15.59064899 11.69507657 18.89231437 13.265625 22.1953125 C13.57973328 22.85784027 13.89384155 23.52036804 14.21746826 24.20297241 C17.09349009 30.24797002 20.12864087 36.20291116 23.25 42.125 C23.70310547 42.98770508 24.15621094 43.85041016 24.62304688 44.73925781 C26.314482 47.9331773 27.99267976 50.98901963 30 54 C35.445 43.11 35.445 43.11 41 32 C41.66 32 42.32 32 43 32 C41.36635748 37.63929704 38.77738462 42.63737363 36.0625 47.8125 C35.61970703 48.68326172 35.17691406 49.55402344 34.72070312 50.45117188 C34.07198242 51.69157227 34.07198242 51.69157227 33.41015625 52.95703125 C33.01965088 53.70960205 32.62914551 54.46217285 32.22680664 55.23754883 C31 57 31 57 28 58 C23.234375 48.46875 18.46875 38.9375 13.703125 29.40625 C13.37183594 28.74383301 13.04054688 28.08141602 12.69921875 27.39892578 C12.0710927 26.14235058 11.44348058 24.88551834 10.81640625 23.62841797 C9.13475514 20.25890712 7.44100007 16.89600268 5.734375 13.5390625 C5.36086914 12.80107422 4.98736328 12.06308594 4.60253906 11.30273438 C3.8838104 9.88310203 3.16195309 8.46504799 2.43652344 7.04882812 C0 2.22495428 0 2.22495428 0 0 Z " fill="#C74E4E" transform="translate(279,390)"/>
<path d="M0 0 C18.81 0 37.62 0 57 0 C74 32.3 74 32.3 74 35 C73.34 35 72.68 35 72 35 C71.16180842 33.37750059 70.3295884 31.75191503 69.5 30.125 C68.80390625 28.76761719 68.80390625 28.76761719 68.09375 27.3828125 C67 25 67 25 67 23 C66.34 23 65.68 23 65 23 C64.34 20.36 63.68 17.72 63 15 C62.34 15 61.68 15 61 15 C60.505 12.03 60.505 12.03 60 9 C59.34 9 58.68 9 58 9 C57.01 6.69 56.02 4.38 55 2 C37.18 1.67 19.36 1.34 1 1 C0.67 1.66 0.34 2.32 0 3 C0 2.01 0 1.02 0 0 Z " fill="#DF5353" transform="translate(206,240)"/>
<path d="M0 0 C0.66 0 1.32 0 2 0 C0.36635748 5.63929704 -2.22261538 10.63737363 -4.9375 15.8125 C-5.38029297 16.68326172 -5.82308594 17.55402344 -6.27929688 18.45117188 C-6.71177734 19.27810547 -7.14425781 20.10503906 -7.58984375 20.95703125 C-7.98034912 21.70960205 -8.37085449 22.46217285 -8.77319336 23.23754883 C-10 25 -10 25 -13 26 C-12.3897251 22.58246055 -11.05980054 20.74472277 -9 18 C-8.21127141 16.57603049 -7.45790685 15.13198491 -6.73828125 13.671875 C-6.34189453 12.87265625 -5.94550781 12.0734375 -5.53710938 11.25 C-4.93092773 10.0125 -4.93092773 10.0125 -4.3125 8.75 C-3.89677734 7.90953125 -3.48105469 7.0690625 -3.05273438 6.203125 C-2.03150241 4.13718447 -1.01406374 2.06946592 0 0 Z " fill="#C34D4D" transform="translate(320,422)"/>
<path d="M0 0 C2.4774584 3.11920967 4.40134546 6.3481979 6.25 9.875 C6.79140625 10.88304687 7.3328125 11.89109375 7.890625 12.9296875 C9.16142703 16.44676637 8.91854608 18.42194258 8 22 C7.72285156 21.43796875 7.44570313 20.8759375 7.16015625 20.296875 C6.38026521 18.75284829 5.57496046 17.2214229 4.74609375 15.703125 C1.88418112 10.33810669 0.3377694 6.07984924 0 0 Z " fill="#BA4848" transform="translate(329,372)"/>
<path d="M0 0 C0.66 0 1.32 0 2 0 C2.95921722 1.74951568 3.91733817 3.49963244 4.875 5.25 C5.67550781 6.71179688 5.67550781 6.71179688 6.4921875 8.203125 C6.98976562 9.12609375 7.48734375 10.0490625 8 11 C8.391875 11.721875 8.78375 12.44375 9.1875 13.1875 C10.23755451 15.52992929 10.140882 17.46412402 10 20 C7.35109525 16.6827562 5.33538658 13.16520923 3.3125 9.4375 C2.68988281 8.30183594 2.06726563 7.16617188 1.42578125 5.99609375 C0 3 0 3 0 0 Z " fill="#C84F4F" transform="translate(204,240)"/>
<path d="M0 0 C3 1 3 1 4.640625 3.80078125 C5.17171875 4.95964844 5.7028125 6.11851562 6.25 7.3125 C6.79140625 8.46363281 7.3328125 9.61476563 7.890625 10.80078125 C9.03164972 14.09127157 8.99307505 14.86023055 8 18 C6.66180502 15.3773768 5.3292849 12.75213401 4 10.125 C3.6184375 9.37863281 3.236875 8.63226563 2.84375 7.86328125 C2.4828125 7.14785156 2.121875 6.43242187 1.75 5.6953125 C1.41484375 5.03547363 1.0796875 4.37563477 0.734375 3.69580078 C0 2 0 2 0 0 Z " fill="#B54545" transform="translate(279,390)"/>
<path d="M0 0 C3.80575472 2.36219259 5.34584363 4.86460906 7 9 C7.1875 11.875 7.1875 11.875 7 14 C3.94998169 10.33997803 0 4.92148529 0 0 Z " fill="#C04C4C" transform="translate(247,326)"/>
<path d="M0 0 C3.40843742 2.88406243 4.86591384 4.3708265 5.8125 8.8125 C5.9053125 10.3903125 5.9053125 10.3903125 6 12 C3.25207517 8.59780735 0 4.51535412 0 0 Z " fill="#AD4040" transform="translate(301,434)"/>
<path d="M0 0 C0.99 0 1.98 0 3 0 C4.80411967 2.75924185 5.0127245 3.88972103 4.625 7.25 C4.41875 8.1575 4.2125 9.065 4 10 C2.26337666 6.77484237 1.1094072 3.48670834 0 0 Z " fill="#B34141" transform="translate(333,384)"/>
<path d="M0 0 C0.66 0 1.32 0 2 0 C3.32 2.97 4.64 5.94 6 9 C5.01 9 4.02 9 3 9 C2.01 6.03 1.02 3.06 0 0 Z " fill="#CF4D4D" transform="translate(314,345)"/>
<path d="M0 0 C0.66 0 1.32 0 2 0 C4.09350689 3.4019487 4.17942163 6.05272412 4 10 C1.16625119 6.79663178 0.4794463 4.21912747 0 0 Z " fill="#C44B4B" transform="translate(236,303)"/>
<path d="M0 0 C2.64465038 3.1254959 3.84414715 6.08788267 5 10 C4.34 10 3.68 10 3 10 C3 9.34 3 8.68 3 8 C2.34 8 1.68 8 1 8 C0.67 5.36 0.34 2.72 0 0 Z " fill="#A84040" transform="translate(263,241)"/>
</svg>
